<?xml version="1.0" encoding="utf-8"?>
<!-- Generator: Adobe Illustrator 23.0.4, SVG Export Plug-In . SVG Version: 6.00 Build 0)  -->
<svg version="1.1" id="Layer_1" xmlns="http://www.w3.org/2000/svg" xmlns:xlink="http://www.w3.org/1999/xlink" x="0px" y="0px"
	 viewBox="0 0 100 100" style="enable-background:new 0 0 100 100;" xml:space="preserve">
<style type="text/css">
	.st0{fill:#B10D1C;}
</style>
<g>
	<path class="st0" d="M50,0C22.4,0,0,22.4,0,50s22.4,50,50,50s50-22.4,50-50S77.6,0,50,0z M73.2,68.6l-4.3,4.3
		c-1.3,1.3-3.3,1.3-4.6,0L50.2,58.7L36,72.9c-1.3,1.3-3.3,1.3-4.6,0L27,68.6c-1.3-1.3-1.3-3.3,0-4.6l14.2-14.2l-14-14
		c-1.3-1.3-1.3-3.3,0-4.6l4.3-4.3c1.3-1.3,3.3-1.3,4.6,0l14,14l14-14c1.3-1.3,3.3-1.3,4.6,0l4.3,4.3c1.3,1.3,1.3,3.3,0,4.6l-14,14
		l14.2,14.2C74.5,65.3,74.5,67.4,73.2,68.6z"/>
</g>
</svg>
