<svg width="346" height="289" xmlns="http://www.w3.org/2000/svg">
  <path d="M130.669 36.89c.907 2.475 2.682 3.341 4.043 2.723-3.012-.372-.578-5.57-4.497-5.57-.206 0-.413.042-.62.084-.66-.701-1.402-.99-2.557-.99-1.65 0-4.497 1.568-4.497 4.869 0 7.138 8.251 7.757 8.251 14.028 0 1.857-1.361 3.012-2.929 3.012-1.403 0-2.517-1.568-3.672-4.002-.578-1.197-1.774-2.764-3.053-4.415.413.247.825.413 1.238.413.454.042.866-.123 1.155-.413.29-.288.454-.66.495-1.114v-.084c0-.537-.247-1.114-.701-1.568-.413-.496-1.031-.743-1.61-.784-.453 0-.865.124-1.155.413a1.596 1.596 0 0 0-.454 1.114v.085c0 .247.043.495.124.7-1.774-2.31-3.425-4.579-3.425-5.817 0-1.114.743-2.104 1.692-3.26.042.043.33.207.33.207l.247-.288c.33-.372 1.03-1.115 2.434-2.641l.084-.124v.043l.33-.371-.866-.743c.206-.536.454-1.072.578-1.733.288 1.156.866 1.898 1.691 1.65-.536-1.196.537-2.764-.165-5.652.66 1.114 1.65 1.692 2.352 1.486-1.857-1.61.537-3.879-1.857-7.386.784.29 1.32.124 1.65-.288-2.186-.289-1.196-3.053-4.991-4.044.948-.164 1.485-.742 1.361-1.237-1.03.742-1.898-1.362-5.199-1.32-.206-1.239-1.361-2.518-2.64-3.137.247.95 0 1.816-.247 2.517l-10.77-10.562c-.329-.29-.495-.372-.577-.247-.084.123-.084.288.124.495l9.242 11.635c-.702.206-1.362.496-2.104.784-.455.165-.784.62-.784 1.197-1.733.866-3.218 1.898-3.961 2.6-.578.494-1.032.618-.537 1.773.206.454-.413 1.568.949.743.866-.496 2.847-1.61 3.136-.908.164.372-.825.825-1.486 1.073-.66.247-1.403.784-1.32 1.031.123.247.66 0 .701.247.043.33.247.62.496.62.289 0 .619-.578.866-.371.206.164-.124 1.444-.33 1.732 1.032-.123 1.692-1.114 1.733-1.898.042-.783.247-.948.413-1.072.165-.085.33.825.124 1.403.578-.124 1.114-.867 1.072-2.187.248-.206.537-.413.743-.413.372 0 1.073.99 2.063.99 1.815 0 2.847-1.486 2.97-2.187.085-.578.043-1.114-.289-1.527.66.537.866 1.362.866 1.98 0 2.6-4.58 3.796-6.436 5.612-.084.042-.165.124-.247.206l-2.146-.866-.123.495c0 .042-.042.124-.124.413-.247.743-.701 2.27-.99 3.136l-.123.37.206.124c-1.279 1.692-2.31 3.59-2.558 5.529-.496-.537-.99-.948-1.568-1.444.085-.165.124-.37.124-.578.042-.578-.124-1.114-.496-1.526-.247-.289-.619-.455-.99-.496-.371-.042-.742.124-1.031.371-.085.084-.124.165-.206.206-.085-.042-.124-.124-.206-.165-.743-.536-1.61-1.196-2.146-1.774-.206-.247-.454-.37-.907-.37-.206 0-.66-.043-.99-.043-.29 0-.495.247-.866.578-.165.123-.66.536-1.196.948.247.289.495.537.783.825.124.165.248.33.413.496.124-.124.248-.206.371-.289.206-.206.495-.247.784-.247.29 0 .66.206.95.619.164.29 1.939 2.6 3.383 4.167-.165.085-.33.124-.496.165-.578.288-1.98.206-2.6.165-.618-.042-.742-.206-1.154.454-.165.247-.371.578-.578.784-.206.29-.372.536.084 1.279.62 1.114 2.187 3.92 2.723 5.198.537 1.28 1.156 1.486 2.146 1.898.99.413 2.723 1.403 2.93 1.61l.042-.949c-.29-.33-1.238-.66-1.61-.784-.37-.165-.454-.33 0-.33.413 0 1.61.455 2.476.784-.247-.948-1.155-1.98-1.733-2.599-.701-.206-1.444-.206-1.733.042.042.206-.123.455-.413.455-.288 0-.495-.248-.372-.496.085-.29.496-.413.413-.95-.084-.536-.783-.66-1.196-.7-.619-.867-1.362-2.187-1.65-2.683-.33-.536-.124-.825.084-1.032.537-.413 1.61.248 3.796.372.784.042 1.733.124 2.723.165.288 2.517 1.32 4.951 4.827 5.818 1.733.454 3.549 1.691 4.168 3.383-7.097-.124-8.211 2.6-8.211 5.199 0 2.97 2.517 2.805 2.517 5.033 0 1.94-5.942 2.723-7.757 2.97-1.527.248-2.393.579-3.136 1.321-.701.743-1.444 1.444-2.764 2.765 0 0 .537.123 1.114.084l.99-1.279c.288-.454.536-.825.701-.784.206.043.085.371-.165.825l-.825 1.403c3.507.247 3.714-1.073 3.714-1.609 0-.495-.866-.866-.371-1.197.536-.33.948-.123 1.361.33.372.495.537.866 1.486.495 0 0 7.592-3.135 8.54-3.548.867-.413.62-.784.124-1.196-.578-.496-.66-1.238-.66-2.022 0-2.31 1.361-3.053 3.837-2.97-.042.37-.042.742-.042 1.113 0 3.59 5.405 7.097 6.89 7.097.66 0 1.527-.496 1.568 1.65.042 1.61.37 2.723.084 4.58-.288 1.815-.825 2.104-1.898 2.888-1.114.784-2.145 3.218-2.64 3.713.495.33 1.032.371 1.444-.824.33-.99.742-1.692 1.155-1.898-.454 1.072-.742 2.64-.95 3.135 1.404.247 3.632-1.032 3.632-2.021 0-.949-.784-.867-.784-1.527 0-.288.372-.619.784-.619.536 0 .99.454 1.031.66.578-.33.99-.948.949-2.393 0-.536 0-1.114-.042-1.733.042.085.084.165.123.247.247.413.702.66 1.238.702a2.268 2.268 0 0 0 1.527-.413c.536-.372.95-.908 1.032-1.444.042-.124.042-.248.042-.372 0-.289-.085-.62-.247-.825-.206-.372-.578-.62-1.032-.701-.537-.124-1.197.042-1.733.371-.495.33-.866.825-.99 1.362-.123-1.98-.288-3.796-.206-4.539.085-1.114.124-1.609-.247-1.774-.37-.165-.784.454-1.32.454-.537 0-2.104-1.444-2.104-3.011 0-1.568 1.65-3.549 1.567-5.694 0-.66.413-.99.66-.413.33.742.784 1.733 1.527 2.517-.454 2.681 2.476 5.28 4.91 3.342-1.197.206-2.022-.867-2.558-1.94.206.043.413.043.66.043h.37c.826 1.073 3.508.95 4.21-1.65-.455.577-1.403.99-2.146.865 1.03-.783 1.568-2.062 1.568-3.465 0-6.767-8.21-7.55-8.21-13.74 0-2.269 1.98-3.754 3.382-3.754.537 0 .95.165 1.28.413-.537.536-.825 1.361-.784 2.352.206 4.868 8.17 4.662 8.293 6.972.866-3.507-5.075-2.434-5.281-7.179m-21.166-18.69c.413-.743 0-1.857 1.361-1.857.66 0 1.238.66 2.022.907-1.28.124-2.434.413-3.383.95m-7.262 14.936c-.042.37-.165.742-.413.948-.124.124-.33.247-.537.247-.454-.042-.825-.577-.825-1.196v-.085c.043-.413.165-.783.413-.99.124-.084.33-.205.537-.205.247 0 .413.165.495.29.248.205.371.618.33.989m23.518 34.204c.042-.372.33-.743.701-1.032.413-.247.825-.33 1.238-.247.165.042.413.123.578.37.164.248.123.496.123.66-.123.373-.372.784-.742 1.033-.702.413-1.486.37-1.816-.124-.165-.206-.123-.495-.084-.66m-4.951-22.693c0-.165.042-.454.247-.619.206-.206.454-.247.66-.247.37 0 .784.206 1.114.537.33.33.495.783.495 1.155-.042.206-.084.454-.288.66a1.006 1.006 0 0 1-.62.206c-.412 0-.824-.206-1.154-.536-.289-.33-.496-.784-.454-1.156m-13.492-15.307c.37-1.197 1.114-3.59 1.114-3.59l1.237.496c-.37.165-.824.495-1.196.866.29.123.784.123 1.114-.085l-.495 1.238c-.124-.206-.455-.66-.825-.742-.248 1.03.413 1.402.866 1.65.742.37 1.238.454 1.444.085.247-.413-.247-1.032-.866-.784-.085-.62.288-.99.701-.99.37 0 .619.33.743.743-.085-1.073.413-1.898 1.402-2.187.372 1.032.085 1.733-.7 2.476.412-.165.865-.124 1.031.164.247.33.165.825-.413 1.156-.124-.702-.907-.743-1.155-.29-.206.413.123.825.825 1.238.825.454 1.485.165 1.898-.537-.248-.084-.743-.042-1.156.248l.825-1.568c.043.247.165.619.537.907.123-.33.288-.95.042-1.485l1.816 1.032c-.62.042-1.073.495-1.28.783a1.44 1.44 0 0 0 1.032 0l-.948 1.527c.042-.537-.124-.949-.372-1.155-.372.742-.288 1.444.495 1.898.702.413 1.238.536 1.527.123.247-.454-.206-1.114-.866-.866 0-.66.37-.99.825-.948.33 0 .578.413.66.824.247-1.031.701-1.65 1.774-1.856.247 1.032-.247 1.856-1.196 2.352.413-.165.825-.085.99.247.205.372.123.866-.496 1.114-.085-.66-.866-.825-1.114-.37-.206.329.084.742.825 1.196.454.288 1.073.66 1.815-.085-.247-.247-.825-.33-1.03-.33l.824-1.072c-.042.413.247.866.496 1.032.123-.537.206-1.073.164-1.444l1.032.825s-1.691 1.815-2.516 2.723zm11.14 28.056c-.454.66-1.238.866-1.733.537-.496-.37-.537-1.155-.085-1.815.454-.62 1.197-.867 1.692-.496.537.33.578 1.156.124 1.774m3.218-5.116c-.454.62-1.197.866-1.692.496-.536-.33-.536-1.156-.123-1.775.454-.66 1.237-.866 1.733-.536.495.372.536 1.196.084 1.815m-19.976-12.548a1.437 1.437 0 0 0-.908.783c-.454.908.085 2.022 1.156 2.517.577.288 1.237.37 1.774.165.454-.165.783-.454.95-.825.164-.372.164-.784.042-1.197-.206-.577-.62-1.031-1.238-1.32-.578-.29-1.238-.33-1.774-.123m.536 2.681c-.701-.33-1.072-1.072-.825-1.567a.79.79 0 0 1 .537-.455c.372-.123.825-.084 1.238.124.413.165.742.495.866.866.042.165.084.454 0 .701a1.31 1.31 0 0 1-.537.455c-.37.123-.825.084-1.279-.124m12.954 19.557c-.413.413-.66 1.031-.66 1.65v.085c0 .62.205 1.197.618 1.61.29.329.702.495 1.114.495.413.042.784-.124 1.114-.454.413-.413.66-.99.702-1.65 0-.537-.165-1.074-.454-1.486-.33-.454-.784-.702-1.28-.702a1.77 1.77 0 0 0-1.155.455m1.073 3.135c-.288 0-.495-.164-.619-.288-.288-.29-.413-.701-.413-1.155 0-.455.165-.908.454-1.156.124-.123.37-.289.66-.289.578.042 1.031.66.99 1.485 0 .455-.165.867-.454 1.156-.124.123-.33.289-.62.247m-12.995-37.218c-.866.66-1.113 1.774-.577 2.476.536.742 1.691.742 2.558.084.454-.33.783-.866.825-1.403.042-.371-.043-.783-.289-1.072-.206-.29-.577-.496-.95-.537-.536-.084-1.113.085-1.567.454m-.165 1.61c0-.33.206-.743.578-1.033.33-.247.701-.37 1.03-.329.166 0 .373.084.537.29a.557.557 0 0 1 .124.536c-.042.37-.247.701-.578.948-.536.413-1.238.413-1.568.043a.816.816 0 0 1-.123-.455m15.349 37.09c-.37.247-.619.577-.701.99-.085.495.084.989.413 1.402.371.372.825.619 1.402.742.537.085 1.114 0 1.527-.247.495-.247.825-.619.907-1.114.165-.99-.66-1.939-1.815-2.145-.619-.124-1.28 0-1.733.372m1.238 2.434c-.784-.124-1.362-.743-1.238-1.32.042-.29.247-.455.372-.578.33-.206.784-.29 1.238-.206.7.124 1.237.66 1.237 1.155v.165c-.123.578-.825.907-1.609.784m9.036-4.993a2.765 2.765 0 1 0 5.529 0 2.765 2.765 0 0 0-5.53 0m.702 0c0-1.114.907-2.063 2.063-2.063 1.114 0 2.022.949 2.022 2.063 0 1.114-.908 2.063-2.022 2.063a2.069 2.069 0 0 1-2.063-2.063m-63.21-15.76c.248-.661-.99-1.445-1.155-2.435-.123-.99 0-1.898-1.114-3.218-1.114-1.28-4.95-5.364-6.106-6.684.29-.043.99-.206 1.692.495.413.37 1.237 1.155 1.98 1.898 1.032-2.558 2.27-4.497 4.085-6.52.206-.246.454-.494.66-.742-.62.206-1.65.33-2.228.743-.085-1.114.042-2.022-.743-2.764.289-1.527.042-3.466-3.466-5.777 1.775.413 2.847 2.063 4.209.825-1.197-.042-1.238-2.764-5.694-4.992 1.692-.043 3.012 2.723 4.992 1.155-1.856-.206-2.475-3.507-5.817-4.539 1.155.124 2.352.702 3.342-.66-1.155.289-1.857-.783-3.095-.907.455-1.444.372-2.31-.123-3.425-.907.085-1.774.33-2.434.866-.085-.783-.949-.824-1.692-.783.085.33.247.866-.165.907-.578.124-2.6.66-4.126 1.28-1.526.577-3.3 1.69-3.796 2.02-.33.207-.577-.288-.783-.536-.537.496-1.073 1.073-.66 1.692-.867.084-1.816.288-2.6.907 0 .99.825 1.98 2.022 2.517-2.063 2.063-.165 3.961-1.98 5.735 2.558.124 2.104-3.466 3.383-3.96-.124 2.516-1.527 2.97-1.527 5.652 0 1.444.866 3.012.085 4.002 2.145-.619 1.609-5.364 2.93-6.767.246.784.084 1.61-.166 2.393-.783 2.228.085 5.24-1.114 6.23 2.187-.205 2.476-3.713 4.25-5.033-1.527 3.177-3.136 9.902-5.446 13.285-3.714 5.034-5.9 11.14-9.325 11.14-1.527 0-2.64-.907-2.64-2.805 0-5.735 9.778-9.655 9.778-15.761 0-2.682-2.187-3.755-3.59-3.755-.907 0-2.021.454-3.011 1.238a2.88 2.88 0 0 0-1.114-.247c-3.466 0-2.559 6.23-5.57 6.189 1.196.66 3.259-.66 4.455-2.393-.495 4.043-6.312 2.97-5.858 7.839.825-3.837 10.067-3.26 10.067-9.036 0-.66-.33-1.196-.784-1.609.702-.454 1.362-.619 1.94-.619 1.113 0 2.145.825 2.145 2.476 0 5.075-9.779 9.407-9.779 15.678 0 1.032.33 1.94.825 2.6-.66.33-1.402.164-1.98-.496-.042 1.61 2.27 2.6 3.713 1.816.33.123.66.164.99.206-.413 1.196-1.898 1.526-2.682 1.485 2.393 1.898 6.56-.578 6.313-2.723 1.898-1.527 3.094-4.126 4.497-5.859-.124.413-.165.784-.247 1.196-1.403 2.517-2.682 4.787-3.053 8.17-.33 2.806-1.733 5.322-3.714 5.322-.413 0-1.114-.577-1.485-.289-.578.537 0 1.073 0 1.61 0 .783-1.527 1.608-1.527 4.043 0 1.114.62 2.434.371 3.177.62-.33 1.486-1.362 1.816-2.724.66 3.26-1.403 3.095.084 5.983.206-.95 1.155-1.362 1.733-.95.578.414.33.66-.124 1.115-.413.413-.824 2.558 1.156 2.434-.372-.247-.413-.784.578-.99 1.361-.288 1.732.33 3.176.33.908 0 1.156-1.156 1.857-1.156.701 0 .701.537.454.95 1.156-.29 1.362-.907 1.362-1.568 0-.66-.537-1.032-.124-1.279.413-.247 1.733 0 1.197 1.114.701-.124 1.073-.619 1.073-1.444 0-.866-.95-1.32-1.857-1.197-.165-.495-.907-.783-1.65-.783-1.568 0-1.32 1.237-2.435 1.237-1.733 0-3.466-2.269-3.466-6.106 0-2.063 2.228-2.6 3.796-3.26 1.568-.7 4.332-2.392 5.983-5.157 1.279-2.145 1.32-4.497 1.155-7.344 2.187 1.28 2.476 3.094 2.476 4.456 0 1.692-.908 2.393-1.61 2.723-.618.247-.783.165-.866.496-.084.454.206.7.496.824.784.413.619 1.197.866 2.022.206.825.948 2.146 2.187 3.095.123-.537.084-1.362 0-2.393 1.733.824.33 4.208 3.63 4.208-.577-.33-.412-1.238-.084-1.362.372-.123.784.248 1.444 1.114.62.908.454.825 2.022.825 1.568 0 .866-.536 1.692-.536.824 0 .742.948.288 1.65 1.403-.413 1.815-1.485 1.362-2.558 1.237-.66 1.856.288 2.062.949 1.197-1.197 0-2.682-.95-2.765.043-.454-.37-.948-.906-.948-.496-.043-.99-.085-1.568-.043-.537.043-.866.867-1.527.867-2.063 0-6.189-3.755-6.189-5.364 0-1.65 3.92-2.64 3.92-5.158 0-3.259-3.218-4.373-5.942-6.519.95-1.072 3.796-1.32 5.405-.536.165-.907.784-.701.99-2.27.578 1.362-.042 2.6.578 3.178.454-.66 1.609-.578 1.526-2.31.372 1.072-.454 2.722.372 3.465.124-.907.66-1.073.99-1.073.33 0 .619.247.619.784 0 1.279-1.61.701-1.61 2.187 0 .619.785.824.785 1.237 0 .372-.66.99-1.403.496.247.578.742 1.073 1.444 1.073.701 0 1.485-.578 1.774-1.32.372.948.084 1.98-.578 2.104.702.37 2.393.042 2.228-2.146.95.165 1.444.825.866 1.98.784-.206 1.527-.577 1.527-1.402 0-.66-.701-.866-.413-1.692M47.697 18.65c-.907.084-.866-.784-2.434-1.156 1.114-.247 2.517-.783 3.755-1.279.247 1.031-.165 2.311-1.32 2.435m6.353 6.725c-1.155.495-2.063-.537-2.269-1.197-.247-.7-.413-1.279-.165-1.526.496-.496.66-.866.372-1.485-.33-.702-1.114-.372-1.898-.165.37-.702.413-1.197-.123-1.114-.62.084-.62 1.073-.949.95-.33-.124-.165-.702-.165-.99.043-.413.289-.578.702-.784l3.342-1.238c.413-.165.742-.247 1.032.042.205.247.742.496.577.825-.164.33-.866-.372-1.361 0-.413.289-.043.62.701.825-.701.454-1.485.743-1.238 1.485.206.62.578.784 1.28.825.371 0 .66.537.949 1.156.33.66.413 1.856-.784 2.393m.165-9.284c-.866.702-2.063.043-2.6-.866 1.238-.495 2.641-1.073 3.59-1.65-.866 1.361-.247 1.939-.99 2.517m-2.026-8.457c.248.37.371.577.371.866-.165-.085-.413-.29-.66-.62l.124 1.527c.164-.288.33-.454.536-.536-.042.95-.454 1.361-.784 1.403a.601.601 0 0 1-.742-.496c-.085-.413.29-.7.66-.288.085-.907-.619-.907-.948-.495.37-.866.205-1.444-.537-1.898-.495.783-.29 1.32.33 1.939-.62-.33-1.115.206-.62.866.124-.578.62-.454.743 0 .085.413-.29.907-.907 1.073-.908.29-1.238-.289-1.444-.784.206-.124.66-.084 1.196.247l-.454-1.444c-.206.496-.495.701-.866.866-.042-.413.288-1.279.288-1.279l-1.774.743s.825.372 1.114.701c-.37.124-.742.206-1.238-.042l.66 1.362c.165-.578.455-.95.702-.99.165.495.372 1.114-.454 1.568-.62.288-1.238.206-1.444-.165-.206-.372.042-.825.536-.495-.084-.867-.825-.825-1.032-.206 0-.867-.206-1.403-1.114-1.61-.247.867.043 1.362.908 1.733-.455-.084-.99.413-.33 1.032 0-.536.454-.619.701-.247.165.247.165.66-.206.866-.288.206-.824.165-1.526-.495.206-.085.413-.042.742.042l-.95-1.155c.043.413.043.701-.041.866-.206-.206-.29-.413-.372-.866l-.702.619c.66.454 1.445 1.073 2.394 2.393.99-.619 2.805-1.485 3.92-1.94 1.072-.453 2.97-1.072 4.125-1.32-.247-1.609-.123-2.64.085-3.383zm-7.385-1.98.537 1.113.618-.784c.043 0 .085 0 .085.043.042.371.084.99.084 1.361 0 .454.371.825.825.825.455 0 .825-.37.825-.825 0-.29-.206-.578-.454-.701-.33-.247-.66-.578-.907-.825.042-.042.042-.085.042-.124l1.073.085-.413-1.114-.784.66c-.042 0-.042 0-.084-.042l-.043-1.156-1.114.413.743.908c-.042 0-.042.042-.042.084zm4.085.865a.648.648 0 0 0 0-.907.648.648 0 0 0-.908 0 .648.648 0 0 0 0 .907c.247.248.66.248.908 0m1.444-1.072a.648.648 0 0 0 0-.908.648.648 0 0 0-.908 0 .648.648 0 0 0 0 .908c.248.247.66.247.908 0m1.691.288a.648.648 0 0 0 0-.907.648.648 0 0 0-.907 0c-.247.247-.247.619 0 .907.247.247.66.247.907 0m.124 1.361c.288.206.66.206.907 0 .247-.288.247-.66 0-.907a.648.648 0 0 0-.907 0c-.247.247-.247.619 0 .907m-7.22 1.156c.33 0 .618-.289.618-.62 0-.371-.288-.66-.618-.66a.651.651 0 0 0-.66.66c0 .33.288.62.66.62m-1.733.123c.371 0 .66-.29.66-.619 0-.37-.289-.66-.66-.66-.33 0-.62.29-.62.66 0 .33.289.62.62.62m-.33.742c0-.33-.288-.62-.66-.62a.608.608 0 0 0-.62.62c0 .372.248.66.62.66s.66-.288.66-.66m.206 1.733c0-.371-.29-.66-.66-.66-.33 0-.62.289-.62.66 0 .33.29.619.62.619.37 0 .66-.29.66-.62m42.703 45.922c0 .043.085.085.165.124 1.032.288 2.187-.454 2.806-.29-.784-.288-1.32.207-2.063.043.454 0 .907-.085.95-.206-.372.206-1.362-.165-1.775.084l-.084.085c-.289.042-.578.247-.578.454 0 .701 2.6.165 2.6.372 0 .165-.496.372-1.197.372-.537 0-1.403-.372-2.558-.085.084-.206.33-.495.206-.619.123-.042.164-.123.206-.165-.085-.084-.165-.084-.206-.084.042-.085 0-.124-.043-.165 0 0-.042-.084-.042-.123a.634.634 0 0 0-.247-.124c-.085-.084-.165-.084-.206-.084a.397.397 0 0 0-.124.042c-.084 0-.123 0-.164.042-.043-.042-.085-.085-.165-.085-.042.085-.042.165 0 .289-.085 0-.206.206-.289.206l.085.084c-.085.124-.085.29-.165.29.042.042.042.084.085.123-.043.165-.085.454-.043.62-.164-.166-.413-.537-.577-.62-.124-.123-.124-.206-.124-.33 0-.123.042-.246.042-.371 0 0-.042-.085-.042-.124 0-.084-.124-.123-.206-.123.042.042.085.042.085.123-.043.043-.043.085-.043.085-.042.042-.042.084 0 .123V56.823c0 .042 0 .042-.042 0 0-.085-.042-.206-.123-.247h-.085c0-.085-.084-.165-.206-.042 0 0 .085 0 .085.042l-.043.084c0 .085.085.124.206.124v.042c.043 0 .043.042.043.042h-.043c-.165-.084-.247 0-.247.085v.084c-.042.042-.084.124.042.206 0-.042 0-.123.043-.123h.042l.042.042s.042 0 .085-.042h.042c.042 0 .042 0 .042.042.042 0 .042 0 0 0-.084.123-.084.247.085.247v.042c0 .206-.29.165-.248-.042-.164.247.124.454.289.33.042-.043.042 0 .042 0 0 .042.042.084.085.084 0-.042 0-.042.042-.042 0 .042.042.123.123.123-.042-.042 0-.084 0-.084.043 0 0 .33.33.536.042.165.165.248.33.248.084.123.164.247.123.247-.042 0-.413-.042-.495 0a2.47 2.47 0 0 1-.33.123l-.042.043c0-.043.042-.043.042-.043-.123 0-.206 0-.247-.084-.042-.042-.042-.085-.084-.165-.043-.042-.085-.084-.124-.084h-.085c-.042-.043-.164-.085-.247-.043.085.043.124.043.165.124-.042 0-.042.042-.042.042-.042.042 0 .124.206.206 0 0 .042.042 0 .042h-.124c-.084-.084-.084-.206-.206-.123 0 0-.042 0-.042.042l-.042-.042c-.085 0-.247.123-.165.247 0-.042.042-.085.124-.085v.042c.042.124.084.206.289.043.042 0 .042.042.042.042-.084.084-.206.165-.084.247 0 0 0 .042.042.042v.042c-.042.124.124.206.165.206 0-.042-.085-.084-.043-.206 0 .043.043.043.043.043.123-.043.084-.206.123-.247.043 0 .043 0 .043.042s.042.165.164.165c.124 0 .165-.124.165-.206.042.042.085.084.085.123 0 0 .084-.042.084-.084.042.084.042.164-.042.206.042 0 .165-.043.206-.206.042.042.042.042.042.084h.29v.124s.042-.042.084-.042 0 .123.085.164c0-.33.206-.164.413-.33v.043a.09.09 0 0 1-.085.084c.085 0 .33-.084.33-.205 0-.043.123-.206.164-.578h.085c.288 0 .413-.206.701-.247-.084.084-.084.288-.084.413 0 .164.206.33.247.371-.085.043-.206.043-.206.085-.247.123-.247-.372-.495-.247l-.043.042c-.084 0-.247.124-.206.206.043-.042.085-.085.165-.085v.043c0 .042 0 .084.085.084.042 0 .042-.042.084-.042l.042.042c0 .085-.288-.042-.247.206 0 0 .042.042.042.085 0 .042.043.123.165.084 0 0-.084-.042-.042-.084h.042s.042 0 .042-.043c.043 0 .043 0 .043.043v.126c0 .085.123.165.247.085-.043 0-.124-.042-.124-.085h.085v-.084c0-.042.042-.042.042-.042h.084c.043.084.124.123.206.084.165-.042.043-.165.165-.206h.085c.123.042.206.042.247 0 .042-.084.042-.288-.124-.37-.042-.043.124-.537-.247-.784.165.042.743.123.866 0 .165.042.372.123.372.164.042.043.042.085 0 .124-.165.085-.124.124-.247.165-.043-.042-.085-.124-.124-.124-.084-.042-.123-.042-.123 0a.195.195 0 0 0-.248.085c.043 0 .085-.042.165 0v.042s0 .042.042.084c-.123 0-.288 0-.247.085 0 .042.042.042.042.084-.084.043-.084.124-.042.206 0-.042 0-.084.085-.123l.042.042c.085.085.165-.084.247-.042v.042c-.084.042-.165.085-.123.165 0 0 0 .042.042.042-.042.085-.042.165.084.206 0-.042-.042-.085 0-.124h.085c.165-.123.084-.206.123-.247.085-.084.165.085.29-.042 0 0 .042-.084 0-.124h.042c0 .043.042.085.124.043-.124-.085 0-.165.042-.206 0 0 .042-.042.042 0 .042 0 .124-.042.165-.124-.084.042-.247-.084-.124-.123.165-.085.206-.165.124-.248-.124-.205-.413-.205-.454-.413h.29c.865 0 1.443-.247 1.402-.536 0-.578-2.64.042-2.64-.372 0-.123.164-.206.37-.288m-1.939.084c.042.042.206.085.288.124-.123 0-.084.084-.164.042-.085 0-.124-.084-.124-.165m-.165-.084c-.042.042-.123.123-.206.042-.042-.042.043-.085-.042-.206.042.042.206.165.247.165m-.29.578c.043-.043.043-.085.085-.085.042 0 .085 0 .085-.042.042-.085 0-.124-.085-.124.085-.042.085-.042.085-.084-.043-.042-.124 0-.124 0 0-.042.043-.042.043-.085h.084l.247.124c0 .042.042.042.042.084 0 0 0 .085-.042.085 0 0 0-.085-.042-.085-.042-.042-.042 0 0 .085-.085 0-.124-.085-.165 0 0 .042 0 .084.042.123 0 0 0 .043-.042.124 0 .042-.084.124-.165.085-.084-.043-.084-.165-.042-.206m3.175-4.288c0 .042.084.084.164.123 1.032.29 2.187-.454 2.806-.288-.784-.29-1.279.206-2.063.042.454 0 .907-.084.949-.206-.372.206-1.362-.165-1.775.085 0 .042-.042.042-.042.042-.578 0-1.032 0-1.032.372 0 .783 2.104.33 2.806.33.619 0 .578.084.578.205 0 .165-.784.206-1.156.206-.577 0-2.31-.288-3.342-.084.085-.165.289-.372.165-.496.085-.042.165-.123.165-.206-.042-.084-.124-.084-.206-.123.042-.043 0-.085-.042-.124l-.043-.124c-.042-.042-.123-.084-.247-.164-.123-.043-.206-.043-.247-.085l-.124.042c-.042 0-.123 0-.123.043-.085-.043-.124-.043-.206-.085-.042.124-.042.165 0 .289-.124.042-.206.247-.288.247.042.042.042.084.084.084-.084.165-.124.33-.206.33l.085.084c-.043.085-.043.206-.043.29l-.084-.043h-.042c-.124 0-.206 0-.413-.123-.165-.085-.165-.165-.165-.33 0-.123.042-.247.042-.37 0 0 0-.085-.042-.124 0-.084-.124-.165-.206-.124.042 0 .084.043.084.124-.042.042-.042.085-.042.085-.042.042-.084.084 0 .123v.127h-.042c-.042-.124-.085-.29-.165-.29h-.042c0-.123-.124-.164-.247-.084.042.042.084.042.084.042v.124c0 .084.042.164.165.164h.042v.043c0 .042 0 .042 0 0-.206-.043-.247.042-.247.084s-.042.085 0 .085c-.084.042-.084.123.042.206 0-.043-.042-.085 0-.085.043 0 .043-.042.043-.042 0 .042.042.042.042.042.042.042.042 0 .123 0 0-.042 0-.042.043-.042 0 .042.042.042.042.042.042.042 0 .042 0 .042-.124.124-.085.248.084.248v.042c0 .247-.288.206-.288-.042-.165.288.124.454.33.33h.042c0 .041.042.084.084.084 0 0 0-.043.043-.043v.043c.042.042.042.123.123.123 0-.042 0-.084.042-.084.043 0 0-.085.289.042.042.042.042.084.123.123l.165-.042c0 .165.042.372 0 .372s-.33-.042-.454.042c-.165.085-.495.206-.619.043-.042-.043-.042-.085-.084-.165 0-.042-.085-.085-.124-.085h-.085c-.042-.084-.164-.084-.247-.042.043 0 .124 0 .165.085-.042.042-.042.084-.042.084-.042.042-.042.124.206.206 0 0 .042.042 0 .042s-.085 0-.124-.042c-.084-.085-.084-.165-.206-.085h-.084c-.124 0-.247.124-.206.248.042-.043.042-.085.123-.085l.043.042c0 .124.084.206.288.043.042 0 .042.042.042.042-.084.084-.206.206-.084.288l.042.042c-.042.124.124.247.165.247 0-.042-.085-.123-.042-.206h.042c.123-.042.084-.164.164-.205 0-.043 0 0 0 0 .043.042.043.205.165.164.165 0 .206-.123.206-.206.042.043.085.085.085.165 0 0 .084-.042.084-.123.043.084.043.164-.042.247.042 0 .206-.085.206-.247.042.042.042.084.084.084.043.042.124.042.248 0h.042v.165c0-.042.042-.085.084-.085 0 0 0 .124.085.206 0-.33.29-.247.537-.413v.042c0 .043-.043.085-.085.124.206.124.454-.206.537-.372l.084-.084c0 .042 0 .084-.042.123.206 0 .165-.164.288-.164.66.042.165-.578 1.238-.371a.483.483 0 0 0 .288-.124c-.084.124-.084.413.085.454.084 0 .206.085.247.124.042 0 0 0 0 0-.085.042-.165.042-.206.085-.247.123-.247-.372-.495-.289 0 .042-.043.042-.085.085-.084 0-.206.123-.206.206.042-.043.085-.085.165-.085v.042c0 .043 0 .085.084.085.043 0 .085-.042.085-.042.042 0 .042.042.042.042 0 .084-.288-.042-.247.206l.042.084c0 .085.085.165.206.124a.09.09 0 0 1-.084-.085h.084v-.042H86.046c0 .042-.042.042-.042.042 0 .043.042.085.042.085 0 .123.123.206.247.123-.042 0-.124-.042-.124-.084.043 0 .043 0 .085-.042v-.085h.084c.043-.042.043 0 .085 0 0 .085.084.124.165.085.164-.085.042-.206.164-.248h.124c.124.043.33.043.33-.042.042-.042.042-.288-.124-.37-.084-.043.042-.165-.042-.248.123.043.29.085.495.085.33 0 .495-.042.701-.124.206-.123.413-.042.455-.042.042 0 .084.042.042.085-.085.164-.042.206-.085.288-.084.084-.206.042-.33 0-.041 0-.084.042-.084.042-.123.042-.247.124-.247.206 0 0 .085-.084.165-.084v.042c-.042.123.124.165.206.084 0 0 .042 0 .042.043-.123.042-.29.164-.165.205l.043.043c0 .084 0 .164.084.164 0-.042 0-.084.043-.123h.084c.085 0 .085-.165.165-.247h.042c-.084.123-.123.247-.042.247 0 0 .042 0 .042.042.042.042.085.085.206.042 0 0-.084-.042-.084-.084.042 0 .084-.085.084-.085.124-.206-.042-.206-.042-.29.042-.084.206 0 .288-.205 0-.042 0-.085-.084-.124.084 0 .123 0 .164-.084-.164 0-.084-.085-.084-.165 0-.042 0-.042.042-.042a.313.313 0 0 0 .085-.206c-.043.042-.206.123-.206 0 0 0 0-.085-.124-.085-.247.043-.578 0-1.032-.042-.042 0-.042-.042 0-.042.454-.042 1.362-.085 1.362-.413 0-.247-.042-.372-.825-.372-.784 0-2.6.29-2.6-.165 0-.206.372-.206.784-.164m-2.599-.085c-.042.085-.124.124-.165.085-.084-.085 0-.085-.084-.206.084.042.206.123.247.123m.165.496c-.042 0 0-.085-.085-.085-.042 0 0 .042 0 .085-.042 0-.123-.043-.123 0-.043.084-.043.084 0 .164.042 0 0 .043 0 .085-.043.084-.085.165-.206.123-.085-.084-.085-.164-.043-.206.043-.084.043-.123.085-.123.042.042.084 0 .123-.042 0-.085-.042-.085-.123-.124.084 0 .123-.042.084-.084-.042 0-.123.042-.123 0 0 0 .042-.043.084-.043 0-.042.042-.042.042 0l.248.085c.042.042.084.042.042.084 0 .043.042.085 0 .085m.165-.165c-.124 0-.165-.123-.124-.206.042 0 .206.085.288.124-.123.042-.084.084-.164.084m5.953-2.37s0-.042.043-.042c.042-.043.084-.085.084-.206-.084.084-.247.164-.247 0 0 0 0-.124-.165-.085-.247.042-.495-.042-.95-.084-.042 0-.042 0 0 0 .455-.043 1.362-.124 1.362-.413 0-.248-.288-.455-1.114-.455-.825 0-3.424.33-3.424-.123 0-.33.866-.206 1.526-.165 0 .042.085.085.165.124 1.073.288 2.31-.496 2.93-.33-.826-.29-1.362.206-2.187.042.495 0 .99-.084 1.032-.206-.372.206-1.403-.164-1.857.085l-.085.084c-.783 0-1.733-.123-1.733.371 0 .825 2.889.33 3.59.33.701 0 .866.084.866.206 0 .206-.701.247-1.073.247-.66 0-3.383-.372-4.456-.042.043-.165.33-.455.165-.62.124-.042.206-.084.206-.205-.084-.043-.123-.085-.206-.085 0-.042-.042-.123-.042-.123-.042-.043-.042-.124-.084-.165-.043-.042-.124-.085-.248-.165-.123-.084-.206-.042-.247-.084l-.123.042c-.085 0-.165 0-.165.084-.042-.084-.124-.123-.165-.123-.042.123-.084.206-.042.33-.085 0-.206.246-.29.205.043.085.043.124.085.124-.085.123-.124.33-.206.33.042.084.084.123.123.123v.247l-.164-.084h-.247c-.124-.043-.248-.248-.455-.372-.164-.085-.164-.165-.164-.33s.042-.288.042-.413c0 0 0-.084-.042-.123 0-.085-.124-.165-.206-.165.042.042.084.084.084.165l-.084.084c0 .042-.043.085 0 .124.042 0 .042.042.042.042s0 .042-.042.042c0 .042 0 .042 0 0-.043-.084-.085-.206-.165-.247h-.085c0-.124-.123-.206-.247-.085.042 0 .085 0 .124.043-.043.042-.043.123-.043.123 0 .085.085.124.206.124v.042c.043 0 .043.042.043.042 0 .043 0 .043-.043 0-.164-.084-.247.043-.247.124v.042c-.084.084-.084.165.042.247 0-.042 0-.123.043-.123h.042l.042.042s.042 0 .085-.042h.084s0 .042.042.042v.042c-.123.124-.123.247.043.247l.042.042c0 .248-.33.206-.288-.042-.206.289.123.496.33.33h.041c0 .084.042.123.085.123 0-.042 0-.084.042-.084v.042c.042.042.042.124.124.165 0-.085 0-.124.042-.124s.206.372.536.537c-.042 0 .124-.085.206-.124 0 .085.043.124.085.165l.084-.042c-.042.165.165.33.124.33-.042 0-.372-.043-.495 0-.124.084-.537.247-.62.084-.042-.085-.042-.124-.084-.206-.042-.042-.084-.085-.123-.085h-.085a.25.25 0 0 0-.288-.042c.084 0 .123.042.164.085 0 .042-.042.084-.042.084-.042.085 0 .165.247.247-.042.043-.084.043-.123 0-.124-.084-.124-.164-.247-.123 0 0-.043.042-.085.042-.123 0-.29.124-.206.247 0-.042.043-.084.124-.123 0 .042.042.084.042.084 0 .124.085.247.33.042v.043c-.043.084-.206.206-.085.29l.042.041c-.042.165.124.29.206.247-.042 0-.084-.084-.084-.206.042 0 .084.043.084.043.124-.085.085-.206.124-.248h.042c0 .085.043.206.165.165.165 0 .206-.123.206-.165v-.042c.085.042.085.085.085.165.042 0 .084-.042.123-.084 0 .042 0 .123-.084.247.084-.042.206-.124.247-.247.042 0 .042.042.042.084v-.042c.085.042.165.042.288 0 .043 0 .043 0 .043.042v.124s.042-.085.084-.085 0 .165.085.247c.042-.371.206-.247.454-.371h.042l-.123.123c.084.085.413-.123.413-.288 0 0 .123-.042.247-.042.247 0 .206-.206.29-.165 1.36.165.577-.578 2.186-.454.084 0 .123-.085.165-.124-.085.124-.085.454.084.495.085 0 .247.043.29.124a.429.429 0 0 0-.248.084c-.247.165-.247-.371-.495-.289-.042 0-.085.042-.085.042-.123 0-.247.124-.205.247 0-.042.084-.084.164-.084v.042c0 .042 0 .085.085.085.042 0 .084-.043.084-.043.043 0 .043.043.043.043 0 .123-.33-.043-.248.206 0 .042.043.084.043.123 0 .042.042.165.206.124-.043-.042-.085-.085-.085-.124h.085s.042 0 .042-.042h.042c0 .042-.042.042-.042.084l.042.085c0 .084.124.206.247.084 0 0-.123 0-.123-.042.042-.042.084-.042.084-.042v-.124h.169c.043.085.124.124.206.085.165-.042.043-.206.165-.247h.124c.123.042.33.042.371 0 .043-.085 0-.33-.123-.413-.085-.042 0-.165-.085-.289.124.043.289.124.496.124.413 0 .536-.042.701-.165.206-.123.413-.042.454-.042a.09.09 0 0 1 .085.085c-.085.206 0 .247-.042.33-.043.084-.206 0-.33 0a.397.397 0 0 0-.124.041c-.084.043-.206.124-.206.206.043 0 .085-.084.165-.084v.042c0 .165.165.206.247.084 0 0 .043 0 0 .043-.042.042-.206.164-.084.206l.042.042c0 .123.042.206.124.206-.043-.042-.043-.085 0-.165h.084c.085 0 .042-.165.165-.206 0-.042 0 0 0 0-.042.085-.042.206.042.247h.042c.043.085.124.124.248.085-.043-.042-.085-.042-.124-.085.042-.042.084-.084.084-.123.085-.165-.084-.165-.084-.247 0-.124.206-.043.206-.248 0-.042 0-.123-.085-.123v-.042c.085 0 .124.042.165-.043-.165 0-.084-.123-.123-.206m-5.983-1.567c.042.042.247.123.33.164-.165 0-.124.085-.206.085-.124-.042-.124-.124-.124-.247m-.206-.085c-.042.085-.123.124-.206.085-.084-.085 0-.124-.084-.247.084.042.247.164.288.164m-.288.66c0-.042.042-.084.084-.084s.085 0 .085-.084c.042-.085 0-.085-.085-.124.085-.042.085-.042.085-.085-.085-.042-.124.043-.124 0-.042-.042.042-.042.042-.084h.085l.247.124c.042.042.085.042.085.084 0 0 0 .085-.043.085 0 0 0-.085-.042-.085s-.042.042-.042.085c-.042 0-.124-.043-.124.042-.042.042-.042.084 0 .123v.124c-.042.042-.123.123-.206.084-.084-.042-.084-.164-.042-.206m-.247-.37zM78.476 44.603c0-.29-.247-.455-1.073-.455-.866 0-3.424.33-3.424-.123 0-.29.866-.206 1.526-.165 0 .042.085.084.165.123 1.073.29 2.187-.413 2.97-.164-.618-.578-1.402.042-2.186-.124.454 0 .95-.084.99-.206-.371.247-1.403-.165-1.857.085l-.084.084c-.784 0-1.733-.123-1.733.372 0 .825 2.888.33 3.59.33.7 0 .865.084.865.205 0 .206-.701.248-1.114.248-.619 0-3.342-.372-4.456-.043.085-.164.33-.454.206-.619.124-.042.206-.084.206-.205-.084-.043-.164-.085-.206-.085.043-.042-.042-.084-.084-.124 0-.042 0-.123-.042-.164-.043-.043-.124-.124-.248-.165-.123-.042-.205-.042-.247-.085-.042 0-.123.043-.123.043-.085 0-.165 0-.165.042-.042-.042-.124-.042-.165-.085-.084.124-.084.165-.042.33-.124 0-.206.247-.288.206 0 .084.042.084.084.123-.084.124-.123.33-.206.33.042.042.042.084.085.084 0 .085-.043.165-.043.248h-.084c-.042-.043-.124-.043-.124-.043h-.123c-.165 0-.247-.247-.454-.371-.165-.085-.165-.165-.165-.33s.042-.288.042-.413c0 0-.042-.084-.042-.124-.042-.084-.165-.164-.206-.164.042.042.084.084.084.164-.042.043-.084.043-.084.085-.042.042-.042.084.042.124v.126h-.042c-.042-.123-.085-.29-.165-.29h-.084c0-.123-.124-.205-.248-.084.043 0 .085 0 .124.043-.042.042-.042.123-.042.123 0 .124.084.165.206.165l.042.042c0 .042 0 .042-.042.042-.165-.084-.247 0-.247.085v.042c-.085.085-.085.165.042.247 0-.042-.042-.123.042-.123.042 0 .085.042.085.042s.042 0 .084-.042h.042c.043 0 .043.042.085.042v.042c-.124.124-.124.247.042.247.042 0 .042.042.042.042-.042.248-.33.206-.33-.042-.164.29.166.496.372.33h.042c0 .042.042.084.084.084 0 0 0-.042.043-.042v.042c0 .042.042.124.123.165 0-.085 0-.124.042-.124.043 0 .206.33.537.496.084 0 .165 0 .206-.085 0 .042 0 .042.042.085.042.165.124.37.085.37-.043 0-.578-.042-.66 0-.165.085-.537.248-.66.085-.043-.085-.043-.124-.085-.206-.042-.042-.085-.084-.124-.084h-.084a.25.25 0 0 0-.289-.043c.085 0 .124.043.165.124l-.042.042c-.042.085 0 .124.247.247-.042.042-.084.042-.123 0-.124-.084-.124-.165-.248-.123l-.042.042h-.042c-.124 0-.29.123-.206.247 0-.042.042-.084.123-.124a.13.13 0 0 1 .043.085c0 .124.084.206.33.042v.042c-.043.085-.207.206-.085.289l.042.042v.042c-.042.124.124.247.206.206-.042-.042-.085-.084-.085-.206.043.042.085.042.085.042.124-.042.084-.206.124-.247.042-.042.042 0 .042 0 0 .085.042.206.206.206.123-.042.206-.123.165-.206 0-.042 0-.042.042-.042.042.042.084.124.042.165.042 0 .085-.042.124-.085 0 .042.042.165-.085.247.085-.042.206-.084.247-.247.042.042.042.042.042.085l.043-.042c.042.042.123.042.29 0v.165c.041 0 .041-.084.084-.084.042 0 0 .165.084.247.042-.372.454-.165.702-.33 0 0 .042 0 0 0 0 .043-.043.085-.085.124a.446.446 0 0 0 .288-.124c0 .043 0 .043-.042.043l.413-.165v-.124c.042 0 .085 0 .124-.042v.042c.247 0 .206-.206.288-.164 1.362.164.578-.578 2.187-.455.084.043.123 0 .165-.084-.085.165-.085.413.084.454.085 0 .247.042.288.124-.084.042-.206.042-.247.084-.247.124-.247-.37-.495-.288-.042 0-.085.042-.085.042-.123 0-.247.124-.206.247 0-.042.085-.084.165-.084v.042c-.042.042 0 .084.085.084.042 0 .042-.042.123-.042v.042c0 .085-.33-.042-.247.248 0 0 0 .042.042.084 0 .085.043.165.206.085a.09.09 0 0 1-.084-.085h.084l.043-.042h.042c0 .042-.042.042-.042.084l.042.085c0 .084.123.206.247.084 0 0-.124 0-.124-.042.043-.042.085-.042.085-.042v-.085l.042-.042h.127c.042.085.124.124.206.085.165-.043.042-.206.165-.206.042-.043.084-.043.123 0 .124 0 .33 0 .371-.085.042-.042 0-.29-.123-.372-.124-.042 0-.164-.085-.288.124.042.288.124.495.124.413 0 .496-.043.66-.165.206-.085.414-.042.455-.042a.09.09 0 0 1 .084.084c-.042.206.043.247-.042.33 0 .084-.206 0-.288 0-.085 0-.124.042-.124.042-.084.042-.206.124-.206.206.042 0 .124-.085.165-.085v.043c.042.123.165.206.247.084.042 0 .085 0 .042.042-.084.043-.206.206-.084.248l.042.042c0 .042.085.123.124.165a.3.3 0 0 1 .042-.165h.042c.085 0 .042-.165.124-.206h.042c-.042.084-.042.206.042.247h.085c0 .085.084.124.206.085-.043-.043-.085-.043-.085-.085 0-.042.042-.084.042-.084.085-.206-.123-.248-.123-.289 0-.123.206-.042.206-.247 0-.042 0-.124-.085-.124v-.042c.042 0 .124.042.124-.042-.124 0-.085-.124-.124-.206 0 0 0-.042.042-.042.043-.042.085-.085.043-.206-.043.084-.206.165-.206 0 0 0-.042-.124-.165-.085-.247.043-.454-.042-.907-.084.454 0 1.32-.124 1.32-.413m-6.065-.701a.779.779 0 0 0 .33.123c-.165.042-.124.085-.207.085-.123 0-.123-.124-.123-.206m-.206-.085c-.042.042-.124.124-.206.042-.085-.042 0-.084-.085-.206.085.043.248.165.29.165m-.29.66c0-.084.043-.123.085-.123.042 0 .084 0 .084-.042.043-.085 0-.124-.084-.124.084-.042.084-.042.084-.084-.042-.043-.123 0-.123 0-.042-.043 0-.043.042-.085.042-.042.042 0 .085 0l.247.124c.042 0 .084.042.084.084 0 0 0 .085-.042.085 0 0 0-.085-.084-.085v.085c-.043-.043-.124-.043-.124 0-.042.042-.042.084 0 .123v.165c-.042.042-.124.124-.206.085-.085-.043-.085-.165-.042-.206m6.947-3.731c0-.288-.33-.454-1.197-.454-.866 0-2.805.33-2.805-.165 0-.247.371-.206.824-.206.043.042.085.085.206.124 1.114.33 2.435-.29 3.136-.085-.825-.619-1.485.042-2.352-.165.496 0 .702-.123.702-.288-.372.247-1.114-.124-1.568.165-.042 0-.085.042-.085.042-.619 0-1.114 0-1.114.413 0 .866 2.31.372 3.054.372.742 0 .907.084.907.206 0 .206-.743.247-1.155.247-.62 0-2.559-.33-3.714-.085.085-.206.289-.454.206-.577.085-.043.165-.124.165-.206-.042-.085-.124-.085-.206-.124.042-.042 0-.084-.085-.123 0-.043 0-.165-.042-.165a.63.63 0 0 0-.247-.165c-.124-.085-.206-.085-.29-.085l-.123.043c-.084-.043-.124-.043-.165.042a.313.313 0 0 0-.206-.085c-.042.085-.042.165 0 .29-.123.042-.247.288-.33.247a.46.46 0 0 0 .085.124c-.084.164-.123.33-.206.33.043.123.124.123.124.164v.33l-.206-.085h-.042s-.043 0-.043-.042l.043.042-.085-.042c-.124-.085-.247-.247-.372-.33-.206-.084-.206-.165-.165-.372 0-.164.085-.288.085-.413-.042-.042-.042-.123-.042-.164-.043-.085-.165-.165-.247-.124.042.042.084.042.084.124 0 .042-.042.084-.042.084-.042.042-.085.124 0 .165v.042s0 .042-.042.085c-.043-.124-.085-.289-.165-.289h-.085v-.042c0-.084-.123-.165-.247-.042.043 0 .085 0 .124.042-.042.042-.042.085-.042.124-.043.084.042.123.164.164h.043v.043c.042.042 0 .042 0 .042-.206-.124-.29 0-.29.084v.085c-.084.042-.084.165.043.247 0-.042 0-.124.042-.165h.042l.042.042c0 .043.043 0 .124-.042h.042l.042.042c.043.043.043.043 0 .043-.123.123-.123.247.043.288.042 0 .042 0 .042.042-.042.247-.372.206-.33-.042-.164.29.124.495.372.372 0-.043 0-.043.042 0 0 .042 0 .084.043.084 0 0 .042-.042.084-.042 0 .084.042.165.124.165-.042-.043 0-.085.042-.085s.124.165.33.289c.164.084.288.247.37.123 0 .206.165.372.124.372-.042 0-.495-.042-.619.042-.165.085-.578.247-.701.042-.043-.042 0-.084-.085-.164 0-.085-.084-.124-.123-.124h-.085a.25.25 0 0 0-.29-.042c.043.042.124.042.165.123l-.042.085c-.042.042 0 .123.247.206 0 0 .043.042 0 .042-.042.042-.084.042-.123 0-.124-.084-.124-.206-.247-.123 0 0-.043 0-.085.042v-.042c-.123 0-.288.164-.247.288a.557.557 0 0 1 .165-.124c0 .042 0 .085.042.085 0 .123.042.247.33.042.042 0 .042.042 0 .042-.043.085-.206.206-.085.289l.042.042v.042c-.042.165.124.288.206.247 0-.042-.084-.123-.042-.206h.042c.124-.042.085-.206.165-.247h.042c0 .085 0 .206.165.206s.206-.123.206-.206v-.042c.085.042.124.124.085.206l.123-.124c.042.085.042.165-.042.248.042 0 .206-.085.206-.248l.084.085c.043 0 .165.042.289 0 .042-.042.042 0 .042 0v.165a.09.09 0 0 1 .085-.085c.042 0 0 .124.084.247.042-.413.247-.247.495-.413.043 0 .043 0 0 .042 0 .043-.042.085-.084.124.247.042.701-.372.742-.537.124 0 .206-.042.248 0 .783.043.247-.7 1.485-.495.085 0 .206-.084.288-.123-.084.164-.084.495.085.495.084.042.206.084.288.165h-.042a.306.306 0 0 0-.206.084c-.288.165-.288-.413-.536-.288-.043 0-.085 0-.085.042-.124 0-.29.124-.247.247.042-.042.084-.084.165-.084v.042c0 .042.042.084.123.084.042 0 .085-.042.085-.042.042 0 .042.042.042.042 0 .124-.33-.042-.288.248l.084.084c-.042.085.042.165.206.124-.042-.042-.084-.042-.084-.124.042 0 .084.042.084.042s.042-.042.042-.084c0 0 .043 0 .043.042l-.043.042.043.085c0 .124.123.247.288.124a.305.305 0 0 1-.165-.085c.042 0 .085-.042.085-.042.042 0 .042-.042.042-.085 0-.042 0-.042.042-.042h.042c.043 0 .043 0 .085.042 0 .042.084.124.206.085.165-.085.042-.206.165-.29h.123c.124.085.372.043.413 0 .042-.084 0-.33-.165-.454-.084-.042 0-.165-.084-.29.165.085.33.124.578.124.37 0 .495-.042.66-.164.206-.124.413-.043.495-.043.042.043.085.043.085.124-.043.206 0 .206-.043.33-.042.084-.206 0-.33 0-.084 0-.123.042-.123.042-.084.042-.206.123-.206.206.043 0 .085-.085.165-.085v.042c.042.165.206.206.29.085 0 0 .042 0 0 .042-.043.042-.206.206-.085.247 0 0 .042.042.085.042-.043.085.042.165.123.165-.042-.042-.042-.042 0-.165h.085c.084 0 .042-.164.123-.206.042-.042.042 0 .042 0-.042.124-.084.206.043.248h.042c.042.084.124.164.247.084 0 0-.084-.042-.084-.084 0-.043.042-.085.042-.085.084-.206-.124-.206-.124-.29 0-.123.206-.042.206-.246 0-.043 0-.124-.084-.165.084 0 .123 0 .165-.085-.165 0-.124-.123-.124-.206v-.042c.042 0 .085-.085.085-.206-.085.085-.248.124-.289 0 0 0 0-.124-.123-.084-.289.042-.455-.043-.949-.085.537 0 1.403-.165 1.403-.454m-5.446-.743c.042.043.247.085.33.124-.166.042-.124.084-.207.084-.084 0-.123-.123-.123-.206m-.206-.123c-.042.084-.124.165-.206.084-.085-.084 0-.123-.124-.247.124.042.29.165.33.165m-.33.701c.042-.042.042-.084.085-.084.084 0 .084-.042.123-.085 0-.084-.042-.084-.123-.123.084-.042.123-.085.084-.124-.042 0-.084.042-.123 0 0 0 .042-.042.084-.042 0-.042.042-.042.085 0l.247.124a.09.09 0 0 1 .084.084s0 .085-.042.085-.042-.085-.085-.085c-.042 0-.042.042 0 .085-.084 0-.123-.043-.164 0-.043.084 0 .084.042.164 0 0 0 .043-.042.124 0 .084-.085.165-.206.084-.085-.042-.085-.164-.042-.206m.7 1.527zm4.018-4.716c.867 0 1.32-.29 1.32-.578 0-.99-2.434-.372-2.434-.949 0-.123.085-.206.165-.29h.043c1.237-.123 1.237-.948 2.145-1.113-1.073-.165-1.238.66-1.692.701a.652.652 0 0 0 .33-.495c-.206.288-.701.288-.949.619-.042.084-.084.123-.042.206-.165.084-.288.206-.288.33 0 .948 2.517.329 2.517.989 0 .247-.455.413-1.114.413-.537 0-.908-.37-1.857-.124 0-.164.33-.454.206-.619.084-.042.165-.123.165-.206-.043-.042-.124-.042-.206-.084.042-.042 0-.085-.043-.124 0 0 0-.123-.042-.123-.042-.042-.123-.085-.206-.165-.123-.042-.206-.042-.247-.042h-.124c-.042 0-.123 0-.123.084a.314.314 0 0 0-.165-.084c-.042.084-.084.123-.042.247-.085 0-.165.247-.247.206.042.084.042.124.084.124-.084.123-.123.288-.206.288l.085.084a1.566 1.566 0 0 0-.124.537h-.042c-.042-.042-.085-.085-.165-.124-.165-.084-.165-.164-.123-.288.042-.124.123-.247.123-.372 0 0-.042-.084-.042-.123 0-.085-.124-.124-.165-.124 0 .042.042.085.042.124-.042.042-.042.084-.084.084 0 .042-.042.085 0 .124v.084h-.042c0-.084-.043-.206-.124-.247h-.042c0-.085-.085-.165-.247-.042h.084c0 .042-.042.084-.042.123 0 .085.085.124.165.124h.042v.084c-.165-.084-.247 0-.288.043v.084c-.085.042-.085.124 0 .206 0-.042 0-.123.084-.123l.043.042s.042 0 .123-.042h.042l.043.042v.042c-.124.084-.124.206.042.206v.042c-.042.206-.33.165-.29-.042-.205.247.043.413.29.288h.042c0 .043 0 .085.042.085 0 0 .043-.042.085-.042v.042c0 .042 0 .123.084.123 0-.042 0-.084.043-.084.042 0 .084.165.206.29-.165.123-.496.164-.537.164-.042 0-.33 0-.413.042-.165.085-.495.206-.619.042-.042-.042 0-.084-.042-.164-.042-.043-.085-.085-.124-.085h-.084c-.042-.084-.206-.084-.247-.042.042.042.123.042.165.084-.043.043-.043.085-.043.085-.042.042 0 .124.206.206v.042c-.042 0-.084 0-.123-.042-.085-.042-.085-.165-.206-.085 0 0-.043 0-.085.043v-.043c-.084 0-.247.124-.165.248 0-.043.043-.085.085-.124a.13.13 0 0 1 .042.084c0 .124.085.206.289.043.042 0 .042 0 .042.042-.085.084-.206.165-.085.247l.043.042v.043c-.043.123.084.205.164.205a.313.313 0 0 1-.084-.205c.042 0 .084.042.084.042.124-.042.043-.206.124-.247h.042c0 .084.042.206.165.206.124-.043.165-.124.165-.206.042 0 .084.084.084.123 0 0 .085-.042.085-.084.042.042.042.164-.043.206.043 0 .165-.043.206-.206 0 0 .043.042.043.084v-.042c.042.042.123.042.288 0v.166s.042-.085.085-.085c0 0 0 .124.042.206.042-.33.247-.165.413-.33h.042c0 .043-.042.085-.085.124.085 0 .248-.084.248-.206 0 0 .084-.042.123-.084.085 0 .206-.042.247-.124 0 .042.043.124 0 .165.206 0 .454-.247.537-.247.454-.124-.288-.454.66-.413.085.042.206-.042.29-.085-.085.165-.085.454.042.454.084 0 .206.043.247.124-.085.042-.165.042-.206.085-.247.123-.247-.371-.454-.248 0 0-.043 0-.085.043-.084 0-.206.123-.206.206.042-.043.085-.085.165-.085v.042c0 .043 0 .085.084.085.043 0 .085-.042.085-.042.042 0 .042 0 .042.042 0 .084-.288-.042-.247.206l.042.042c0 .085.085.165.206.124a.09.09 0 0 1-.084-.085h.084v-.042h.042v.169c0 .084.124.165.289.084a.306.306 0 0 1-.165-.084h.085c.042-.042.042-.085.042-.085v-.042h.127c0 .085.084.124.164.085.165-.043.043-.206.165-.206.042-.042.085-.042.085 0 .123 0 .33 0 .371-.042 0-.085 0-.29-.123-.372-.085-.042 0-.124-.085-.247.124.042.29.123.454.123.372 0 .043-.042.206-.165.124-.084.33-.042.413-.042.043.042.085.042.043.085-.043.206.042.206 0 .29-.043.084-.206 0-.289 0-.084 0-.123.041-.123.041-.085.043-.165.124-.165.206 0-.042.084-.084.165-.084v.042c0 .124.123.165.206.084 0-.042.042 0 .042 0-.085.085-.206.165-.085.248h.043c0 .084.042.164.123.164-.042-.042-.042-.042 0-.123h.042c.085 0 .043-.165.124-.206h.042c-.042.084-.042.206.043.206 0 0 0 .042.042.042.042.042.084.085.206.042 0 0-.085-.042-.085-.084.043 0 .043-.042.043-.042.084-.206-.085-.206-.085-.29 0-.084.165-.042.165-.206 0-.042 0-.084-.085-.123.043 0 .124 0 .124-.085-.124.042-.085-.084-.085-.165v-.042c.043-.042.085-.084.043-.165-.043.043-.206.124-.206 0 0 0 0-.123-.124-.084-.247.042-.37-.085-.784-.124-.042 0-.042-.042 0-.042m-2.723-.99h-.042.042m.66-.164c0 .042.165.084.248.123-.124 0-.085.085-.165.085-.085-.043-.124-.124-.085-.206m-.206-.085c-.042.042-.123.124-.164.042-.085-.042 0-.084-.085-.206.085.085.206.165.247.165m-.288.578.084-.085c.043 0 .085 0 .085-.042.042-.084 0-.084-.042-.123.042-.043.042-.043.042-.085-.042-.042-.085.042-.124 0 0-.042.043-.042.085-.042 0-.042.042-.042.042 0l.247.084c.042.043.042.043.042.085 0 .042.043.042 0 .084-.042 0-.042-.084-.084-.084s-.042.042 0 .084c-.085-.042-.124-.042-.124 0-.042.043-.042.085 0 .124.043 0 0 .084 0 .124-.042.042-.084.123-.164.084-.124-.042-.085-.124-.085-.206m3.315 13.933h-.206v-.206c.042-.743-.413-1.28-1.197-1.28-.701 0-2.063.908-3.96.908-.784 0-1.775-.413-2.353-.742l-.247.577v-.084a.458.458 0 0 0-.454-.454c-.247 0-.495.206-.495.454 0 .247.247.454.495.454.124 0 .288-.042.37-.165l-.246.578c.084.042.164.084.247.124-.288 2.846 1.857 6.518 5.611 7.632.537-.123 1.114-.042 1.114.537 0 .413-.165.537-.536.537-.206 0-.33-.124-.33-.248 0-.247.413-.123.454-.289.085-.206-.084-.33-.33-.33s-.66.165-.66.62c0 .495.414.824.867.824.413 0 1.279-.247 1.155-1.279.206 0 .454 0 .495-.206l.043-.577-.206-.043.164-6.601h.124c.247.042.454-.085.495-.33 0-.288-.206-.413-.413-.413m-6.807.496 4.58 6.601c-2.435-.95-4.87-3.177-4.58-6.601m4.744 5.982-4.208-6.024h.413c.206 0 .413 0 .619-.042l3.342 4.828c-.042.454-.124.866-.165 1.237m.288-1.898-2.929-4.25c.33-.084.619-.164.907-.288l2.228 3.177c-.084.455-.123.908-.206 1.362m.702-4.662H77.2c-.206-.043-.454.084-.454.33-.043.246.164.412.413.412h.123c-.042.085-.042.124-.042.206-.042.372-.165.99-.247 1.692l-1.898-2.682c.907-.33 1.61-.701 1.98-.701.289 0 .371.123.289.742m11.387-6.805c.164-.085.289-.165.33-.29a.35.35 0 0 1-.33-.084c.084-.043.247 0 .084-.206-.124-.206-.206-.247-.372-.085-.123.165-1.114-.042-1.114-.742.085.123.206.206.33.289.042 0 .084 0 .123.042h.124c.084.043.206.085.288.043h.042c.206-.043.372-.165.372-.372.043-.413-.33-.578-.742-.949a3.722 3.722 0 0 1-.413-.372c-.124-.288-.042-.536-.413-1.072 0-.124-.043-.247-.124-.454-.165.33-.247.99.247 1.526.413.454 1.28.866 1.238 1.28 0 .084-.084.164-.206.164h-.124c-.042 0-.084 0-.084-.042-.085 0-.124-.042-.206-.085-.084-.042-.165-.123-.288-.206-.372-.33-.702-.825-.908-1.114-.413-.495-.206-.99-.164-1.444.289-.371-.165-1.196-.413-1.361 0 0 .042-.206-.043-.413-.042.042-.164 0-.247 0-.042-.124-.084-.165-.206-.206-.164 0-.164-.124-.164-.165-.124.085-.124.165-.248.165-.164 0-.206 0-.247.042-.123.124-.165.124-.33.124-.164 0-.123.084-.123.206 0 .084 0 .205.124.247h.042l.124.164.084-.164c.085-.043.29-.085.33.084.042.085.042.124-.085.124-.165.042-.206.042-.33.042-.123 0-.123.124-.123.206.042.084.124.124.33.084.205-.042.536-.084.536.085 0 .454-.495.413-.619.95-.123-.085-.247-.165-.288-.29a3.145 3.145 0 0 0-.372-.454 2.226 2.226 0 0 0-.372-.288c-.165-.124-.206-.206-.206-.372 0-.165.085-.289.085-.454 0 0-.043-.085-.043-.124-.042-.124-.164-.165-.247-.165a.555.555 0 0 1 .124.165l-.085.084c-.042.043-.042.085 0 .165v.085c0 .042 0 .042 0 0-.042-.124-.084-.247-.206-.29h-.084c0-.123-.124-.206-.247-.084.042.042.084.042.123.042-.042.042-.042.124-.042.124 0 .123.085.164.206.164 0 0 .042 0 .042.043v.042c-.206-.085-.29 0-.29.084v.085c-.084.042-.084.165.043.247 0-.042 0-.124.042-.124h.043l.042.043s.042 0 .084-.043h.085l.042.043c.042 0 .042 0 0 .042-.123.123-.084.206.042.247-.042.165-.289.085-.289-.084-.165.247.124.454.372.33 0 .123 0 .289.042.289-.042 0 0-.043.042-.043v.043c0 .042.043.123.124.164 0-.084 0-.084.042-.123a.975.975 0 0 0 .124.206c.084.206.33.742.866.948-.29.165-.454.372-.619.578-.165.165-.37.288-.495.206-.085-.042-.085-.085-.165-.165-.042-.042-.124-.042-.165-.042 0 0-.042.042-.084.042a.195.195 0 0 0-.247.085.3.3 0 0 1 .164.042v.084c0 .085.042.124.33.124 0 0 .042 0 0 .042 0 0-.042.042-.124.042-.123-.042-.165-.123-.288-.042 0 0 0 .042-.042.085h-.043c-.084.042-.206.247-.042.33 0-.043 0-.124.042-.166.043.043.085.043.085.043.084.123.165.206.33-.085 0 0 .042 0 .042.042-.043.124-.165.289 0 .289 0 0 .042 0 .084.042v.042c.043.124.247.165.33.124-.085-.043-.165-.085-.206-.165.042 0 .084-.042.084-.042.124-.085 0-.206.043-.289h.042c.042.085.123.206.247.124.084-.042.084-.124.124-.165.164-.084.33-.165.454-.123 0-.085.084-.206.288-.248.165-.042.288 0 .33.043.042-.085.084-.206.206-.33-.043.784.99.743 1.237 1.197-.33-.124-.66-.206-.824-.124-.248.042-.702.247-.784.537-.042.247.206.66.454.824-.288.043-.37-.042-.66.043h-.042c-.206 0-.248-.413-.537-.29 0 0-.042.043-.085.043-.084 0-.247.123-.206.247 0-.043.085-.085.165-.085v.042c0 .043 0 .085.085.085H84.35c0 .123-.372-.042-.29.247l.042.085c0 .084.085.164.206.123 0 0-.084-.042-.042-.084h.042c.042 0 .042 0 .042-.043 0-.042 0-.042.043-.042V44.17c0 .085.165.206.33.085-.043 0-.165 0-.165-.085h.084v-.123h.042c.043 0 .043 0 .085-.042.042 0 .042.042.042.042.042.042.124.123.206.084.085 0 .085-.042.124-.084l.084.084c0-.084.085-.206.33-.042l.165-.123s.205.084.289 0c.165-.124.084-.165.084-.248-.123-.247-.164-.247-.206-.454-.084-.372.455-.578.743-.536.085.247.413.907.949 1.072.371.124.495-.247.618-.206.043 0 .043.043.085.124-.042.165 0 .33-.042.413-.043.084-.247 0-.371 0a.397.397 0 0 0-.124.042c-.123.042-.247.124-.247.247a.821.821 0 0 1 .206-.123c0 .042.043.042.043.084 0 .124.164.165.247.085 0 0 .042 0 .042.042-.084.042-.247.206-.124.247 0 0 .043 0 .085.043 0 .084.084.164.165.205-.042-.084-.042-.084 0-.205h.084c.085 0 .043-.165.124-.248.042 0 .042 0 .042.043-.042.084-.042.206.042.247 0 0 .043 0 .085.042 0 .084.123.124.247.042 0 0-.085-.042-.124-.084l.085-.085c.084-.247-.124-.247-.124-.33 0-.123.206-.042.206-.247v-.042c.124-.084.247-.123.247-.247-.164.042-.289-.042-.289-.042zm2.145 1.32c.206.123.124.454-.123.454a14.692 14.692 0 0 0-2.352-6.23h.042a.794.794 0 0 0 .495-.66.833.833 0 0 0-.783.33c-.085-.085-.165-.207-.248-.33a11.686 11.686 0 0 0-2.682-2.476 9.953 9.953 0 0 0-2.929-1.361c0-.248.33-.248.454-.043.043-.413-.29-.577-.495-.536a.39.39 0 0 0-.206.33.665.665 0 0 0-.578-.289c0 .247.085.413.165.578-.165 0-.247.084-.288.164-.124.165 0 .537.413.578-.206-.165-.124-.454.123-.454v4.786c-.247-.084-.536-.042-.784.206.248.247.537.289.784.206v5.199c-.247 0-.33-.33-.123-.454-.372 0-.537.33-.455.536.043.124.165.206.372.206a.712.712 0 0 0-.206.537.722.722 0 0 0 .537-.206c0 .206.084.33.206.372.206.084.536-.085.536-.455-.123.206-.454.124-.454-.123h3.628c-.085.247-.042.536.206.825.247-.289.247-.578.206-.825h4.002c0 .247-.29.33-.454.123.042.413.372.578.536.455a.308.308 0 0 0 .206-.372c.124.123.33.165.537.165a.796.796 0 0 0-.206-.537c.206.042.33-.084.413-.165.042-.206-.124-.536-.495-.536m-3.466-6.313c-.124.084-.165.206-.124.33.042.123.165.205.37.247a.73.73 0 0 0-.287.495c.247.042.413-.042.577-.124-.042.206 0 .33.124.413.084.043.206.085.33 0 .907 1.486 1.567 3.219 1.815 4.952-.085-.085-.247-.124-.454-.124.042.247.123.454.247.578h-3.053c.042-.206-.085-.372-.206-.413-.124-.042-.247 0-.413.165 0-.206-.042-.372-.206-.537-.165.165-.247.33-.247.537-.165-.165-.289-.206-.413-.165-.124.042-.206.206-.206.413h-2.6a.906.906 0 0 0 .165-.537c-.206.042-.372.085-.495.206v-4.208c.165 0 .37-.085.413-.206.042-.124 0-.29-.165-.413a.81.81 0 0 0 .537-.247.798.798 0 0 0-.537-.248c.165-.123.206-.288.165-.413-.042-.123-.247-.206-.413-.206V35.77a.624.624 0 0 0 .413.165.629.629 0 0 0-.085-.496 8.08 8.08 0 0 1 2.31 1.156 9.56 9.56 0 0 1 2.435 2.228m11.432 7.759c-.454-.33-1.155-.95-1.527-1.733-.454-.948-2.393-4.786-2.681-5.281-.247-.454-.372-.825-.372-1.155 0-.413.165-.743.413-1.032.123-.206.536-.578.701-.825.124-.206.247-.372.372-.496-.701-1.196-1.444-2.145-2.393-3.177a18.044 18.044 0 0 0-3.796-3.3c.743-.455 1.527-1.156 1.527-2.352 0-.66-.289-1.197-.784-1.65.784-2.517 2.187-5.53 3.383-6.85l-2.517-1.072c.66.99.702 2.145.537 2.847-.66-.455-1.197-1.073-1.403-1.898-.123.742-.536 1.98-.907 2.723.701-.33 1.32-.496 2.022-.206-.413.578-1.486 1.485-3.136 1.072-.907-.205-1.816-.7-1.774-1.361.042-.413.33-.907.907-.866.537.042.578.866.413 1.238.701-.371 1.444-2.517.33-2.806-.867-.247-1.692.949-1.98 1.898-.166-1.114-.62-2.187-1.527-2.145-1.156.084-.784 2.228-.372 2.764.042-.743.454-1.155.825-1.114.29 0 .701.247.619.907-.043.702-1.032 1.114-2.146 1.114-1.073 0-2.93-.33-3.094-2.393.7.124 1.774.66 2.228 1.362-.124-1.28-.165-2.146 0-3.425-.578.825-1.527 1.238-2.187 1.32.165-.866.948-1.815 1.815-2.351h-4.58c.908.536 1.65 1.485 1.857 2.351-.701-.123-1.609-.536-2.187-1.32.165 1.28.165 2.146 0 3.425.455-.702 1.527-1.238 2.187-1.362-.165 2.063-2.021 2.393-3.094 2.393-1.114 0-2.063-.413-2.146-1.114-.084-.66.33-.907.62-.907.371-.042.783.372.824 1.114.413-.537.784-2.682-.372-2.764-.866-.043-1.361 1.031-1.526 2.145-.289-.949-1.073-2.145-1.98-1.898-1.115.288-.372 2.434.329 2.806-.165-.371-.124-1.197.413-1.238.578-.042.866.454.907.866.042.66-.866 1.155-1.733 1.361-1.65.413-2.723-.454-3.177-1.03.743-.33 1.362-.165 2.063.164-.372-.742-.783-1.98-.907-2.723-.206.825-.784 1.486-1.444 1.94-.124-.702-.085-1.899.536-2.889l-2.475 1.073c1.155 1.32 2.6 4.374 3.383 6.89-.495.413-.742.949-.742 1.61 0 1.196.701 1.897 1.485 2.351a18.034 18.034 0 0 0-3.796 3.301 21.156 21.156 0 0 0-4.043 6.684c.37.372 1.856 2.022 2.228 2.476.619.783.99 1.568 1.032 2.186 0 1.156.247 1.568.866 2.352.164.247.454 1.114.495 1.692H79.88v13.615c-.496 0-1.032.124-1.444.66 1.444.578 2.805 1.115 4.208 1.527.124-.866.288-1.444.743-1.98 0 0-1.816-.165-2.765-.247V48.274h12.213c-.085 1.857-.413 3.672-1.03 5.364a14.76 14.76 0 0 1-2.724 4.786 12.887 12.887 0 0 1-4.044 3.177c-.247.124-.247.33-.495.413-.206.247-.413.619-.619 1.114-.123.413-.206.701-.247 1.238.537.165.866.247 1.403.413 4.29 1.073 5.363.742 5.611.536a19.228 19.228 0 0 0 2.682-2.516c1.733-1.94 3.094-4.209 4.043-6.767a23.893 23.893 0 0 0 1.444-8.21c0-.537.043-.702 0-1.238m-18.979.948H67.337c.042-1.939.372-3.837 1.032-5.611.62-1.774 1.568-3.342 2.723-4.745a13.659 13.659 0 0 1 4.044-3.218c1.526-.743 3.094-1.114 4.744-1.114zm.206-20.836c-4.167 0-7.055 1.238-8.706 2.352-.99-.578-1.403-1.155-1.403-1.815 0-2.352 6.726-2.559 10.109-2.559s10.109.206 10.109 2.559c0 .66-.413 1.237-1.403 1.815-1.65-1.114-4.539-2.352-8.706-2.352m.537 20.836V32.844a11.86 11.86 0 0 1 4.414 1.114 13.654 13.654 0 0 1 4.044 3.218c1.155 1.403 2.104 2.97 2.723 4.745.66 1.774.99 3.672 1.03 5.611zm41.754 30.407c-.042-.165-.247-.247-.413-.206-3.92 1.156-8.788-2.104-13.492-5.24-3.96-2.64-7.674-5.116-10.892-5.116-1.197 0-2.228.247-3.136.743-1.114.619-1.94 1.609-2.476 2.888a19.791 19.791 0 0 1-1.568 2.93c-.577.865-.948 1.485-.948 2.227 0 .66.288 1.238.825 1.775.454.454 1.073.907 2.022 1.402.205.124.413.206.618.289.784.371 1.28.66 1.362 1.072-1.568.702-3.548 1.28-5.859 1.65-2.558.455-5.364.702-8.334.702-2.971 0-5.818-.247-8.376-.701-2.27-.371-4.29-.949-5.859-1.65.085-.66.578-.908 1.403-1.32.206-.085.413-.207.619-.29.784-.412 1.527-.824 2.022-1.278.536-.496.784-.99.784-1.65 0-.743-.372-1.362-.908-2.229-.454-.701-1.032-1.609-1.568-2.93-.536-1.278-1.361-2.268-2.517-2.887-.866-.496-1.939-.743-3.094-.743-3.218 0-6.973 2.476-10.934 5.116-4.703 3.136-9.53 6.396-13.45 5.24-.206-.042-.372.043-.454.206-.043.206.042.37.206.454 1.196.537 2.228 1.362 3.259 2.146 1.403 1.114 2.723 2.145 4.208 2.145 1.403 0 2.889-.454 4.704-1.402 1.568-.825 3.218-1.94 4.786-3.012 3.095-2.105 6.313-4.291 9.325-4.539-.289.33-.62.62-.908.866-.907.784-1.65 1.486-1.65 2.888 0 1.114.372 1.898.907 3.012.124.29.33.66.496 1.073.33.743.454 1.362.66 2.187.124.33.206.742.33 1.238.205.7.536 2.063 2.764 3.177 2.6 1.32 7.055 1.98 13.244 1.98s10.645-.66 13.203-1.98c2.228-1.114 2.6-2.476 2.764-3.177.124-.496.248-.908.33-1.238.206-.825.33-1.444.701-2.187.248-.536.455-.99.702-1.403.454-.866.825-1.568.825-2.558 0-1.403-.825-2.145-1.775-2.97-.288-.29-.618-.578-.948-.908 3.053.247 6.23 2.435 9.325 4.539 1.567 1.073 3.218 2.187 4.827 3.012 1.815.95 3.3 1.402 4.703 1.402 1.445 0 2.806-1.03 4.209-2.145.99-.784 2.063-1.61 3.26-2.146.164-.084.247-.247.164-.454m-39.277-4.002c-.206 0-.372 0-.537.084V70.68a28.56 28.56 0 0 1-4.91-.743v4.085c-.164-.085-.37-.085-.577-.085-1.197 0-1.898.99-1.898 1.898 0 .866.495 1.65.948 2.146.206-.537.413-.949.702-.949.577 0 .33 2.888 2.021 2.97-.042.166-.084.33-.084.496 0 .743.578 1.32 1.32 1.32.743 0 1.32-.577 1.32-1.32 0-.165 0-.33-.084-.495 1.733-.042 1.444-2.97 2.022-2.97.288 0 .454.412.742.948.413-.496.907-1.28.907-2.146 0-.907-.7-1.898-1.897-1.898M80.08 81.24a.739.739 0 0 1-.743-.742c0-.413.33-.743.743-.743s.742.33.742.743-.33.742-.742.742m4.002-4.25c-.206-.37-.496-.577-.784-.577-1.114 0-.66 3.012-2.022 3.012-.619 0-.948-.372-.948-.784 0-.454.33-.578.33-.907 0-.33-.29-.455-.578-.455-.289 0-.537.124-.537.455 0 .33.288.454.288.907 0 .413-.33.784-.948.784-1.32 0-.907-3.012-2.022-3.012-.247 0-.578.206-.742.577-.248-.413-.371-.825-.371-1.155 0-.578.413-1.32 1.32-1.32 1.527 0 1.155 2.063 1.898 2.063.33 0 .578-.165.578-.496 0-.577-1.073-1.155-1.073-1.98 0-.866.743-1.568 1.61-2.27.865.702 1.65 1.404 1.65 2.27 0 .825-1.073 1.403-1.073 1.98 0 .33.206.496.536.496.743 0 .372-2.063 1.898-2.063.908 0 1.32.742 1.32 1.32 0 .33-.123.743-.329 1.155m.788-11.305a61.2 61.2 0 0 1-9.242-3.3V62.3c.084-.62-.165-1.32-.62-1.857-.494-.578-1.154-.866-1.773-.866-.289 0-.578.042-.866.165-.455-.413-.867-.866-1.28-1.32-1.155-1.403-2.104-2.971-2.722-4.787-.372-1.03-.66-2.063-.825-3.135-.165.907-1.156 2.063-2.93 2.104.042-.165.042-.619-.123-.701-.455.536-1.156 1.072-2.765.536.247 1.238.62 2.435 1.032 3.59.949 2.558 2.31 4.827 4.044 6.766a18.01 18.01 0 0 0 1.774 1.774v.372c0 .66.619 1.692 1.526 2.146.743.372 1.568.247 2.27-.247a25.335 25.335 0 0 0 4.95 1.898c2.105.577 4.127.907 5.695.907 1.361 0 3.177-.62 4.95-1.774.702-.455 1.362-.949 1.857-1.403.085-.042.165-.124.206-.165-1.361.165-3.466-.206-5.157-.619M74.64 61.476l-.33-.248c-.537-.413-.99-.37-1.485.043-.206.164-.413.413-.62.66l-.329.372.206.164c.578.455.66.95.495 1.238-.042.124-.164.165-.288.206-.288.085-.66 0-1.073-.247l-.247-.124-.123.206c-.043.043-.043.085-.085.165-.084.042-.123.124-.165.247-.247.413-.37.743-.37.99 0 .085 0 .165.042.206.084.33.33.454.537.578l.164.084c.247.165.62.413.866.537-.495.288-.99.33-1.526.084-.743-.37-1.238-1.279-1.238-1.691 0-.66.29-1.486.825-2.352l.084-.124-.084-.164a3.13 3.13 0 0 1-.372-.743c.29.042.578.085.866.165h.124l.123-.085c.33-.371 1.486-1.568 2.6-1.568.495 0 .99.248 1.361.702.289.33.455.701.537 1.073l-.495-.372m1.774 5.322a1.198 1.198 0 0 1 0-2.393 1.197 1.197 0 0 1 0 2.393m5.24 1.61c-.578 0-1.073-.496-1.073-1.115 0-.577.495-1.072 1.073-1.072.619 0 1.114.495 1.114 1.072a1.11 1.11 0 0 1-1.114 1.114M81.57 4.662c-.619-.495-1.114-1.237-1.196-1.98.742.123 1.526.66 2.021 1.279V.908c-.495.619-1.279 1.155-2.021 1.279.084-.743.536-1.403 1.155-2.187h-2.97c.66.784 1.113 1.444 1.196 2.187-.743-.124-1.568-.66-2.022-1.28v3.054c.454-.62 1.279-1.155 2.022-1.28-.085.743-.578 1.486-1.238 1.981zm-4.25 3.714c.29 1.237 1.403 2.186 2.724 2.186 1.361 0 2.475-.948 2.723-2.186zm3.301-1.114h2.187a2.873 2.873 0 0 0-2.187-2.27Zm-1.114 0v-2.27c-1.155.248-2.022 1.156-2.187 2.27zm2.063 4.208c-.29.124-.66.247-.99.289v3.795h.99zm-3.012 4.126h.99v-3.837c-.372-.042-.702-.124-.99-.288zm3.218-4.827c0 .495.413.907.908.907.454 0 .866-.413.866-.907a.871.871 0 0 0-.866-.866c-.496 0-.908.371-.908.866m2.971-.085c.495 0 .866-.413.866-.907a.846.846 0 0 0-.866-.866c-.495 0-.907.372-.907.866 0 .495.413.907.907.907m2.187-.619a.915.915 0 0 0 .907-.907c0-.495-.413-.866-.907-.866a.845.845 0 0 0-.866.866c0 .495.37.907.866.907m6.271 1.98a.915.915 0 0 0 .908-.907c0-.495-.413-.866-.908-.866a.845.845 0 0 0-.866.866c0 .496.37.908.866.908m-1.733-1.527c.496 0 .866-.413.866-.907a.846.846 0 0 0-.866-.866c-.495 0-.907.371-.907.866s.413.907.907.907m-2.228-.701c.496 0 .908-.372.908-.866a.915.915 0 0 0-.908-.908c-.454 0-.866.413-.866.908 0 .495.413.866.866.866m4.786 6.766c-.495 0-.866.413-.866.908 0 .495.372.866.866.866.496 0 .908-.372.908-.866a.915.915 0 0 0-.908-.908m.455-2.145a.915.915 0 0 0-.908.907c0 .496.413.866.908.866a.846.846 0 0 0 .866-.866c0-.495-.371-.907-.866-.907M93.288 13.2c0 .495.413.866.907.866a.846.846 0 0 0 .866-.866c0-.537-.371-.907-.866-.907a.89.89 0 0 0-.907.907m-15.844-1.527c.496 0 .867-.413.867-.907 0-.495-.371-.907-.867-.907a.915.915 0 0 0-.907.907c0 .495.413.907.907.907m-2.063-.99c.496 0 .867-.412.867-.907a.846.846 0 0 0-.867-.866c-.495 0-.907.372-.907.866 0 .496.413.908.907.908m-2.228-.62a.915.915 0 0 0 .908-.907c0-.495-.413-.866-.908-.866a.87.87 0 0 0-.866.866c0 .496.413.908.866.908m-6.23 1.98c.496 0 .866-.413.866-.907a.846.846 0 0 0-.866-.866c-.495 0-.907.37-.907.866 0 .495.413.907.907.907m1.733-1.526c.454 0 .866-.413.866-.908a.871.871 0 0 0-.866-.866c-.495 0-.907.372-.907.866 0 .496.413.908.907.908m2.187-.702c.495 0 .907-.371.907-.866a.915.915 0 0 0-.907-.907c-.495 0-.866.413-.866.907 0 .496.372.866.866.866m-3.879 7.675a.915.915 0 0 0-.907-.908c-.454 0-.866.413-.866.908 0 .495.413.866.866.866.496 0 .908-.372.908-.866m-.455-2.146c0-.495-.371-.907-.866-.907a.915.915 0 0 0-.907.907c0 .495.413.866.907.866a.846.846 0 0 0 .866-.866m-.577-1.279c.495 0 .907-.413.907-.866a.915.915 0 0 0-.907-.907c-.496 0-.867.413-.867.907 0 .454.371.866.867.866m20.712.578c.495.99.948 1.526.866 2.31-.042.743-.866 1.28-1.197 2.063-.371-.907-.907-1.568-.866-2.269.085-.701 1.032-1.61 1.197-2.104m-13.162 0c-.495.99-.949 1.526-.866 2.31.084.743.866 1.28 1.238 2.063.33-.907.907-1.568.825-2.269-.043-.701-1.031-1.61-1.197-2.104m174.61 263.194c.206 4.745 4.332 6.271 8.747 6.271 3.3 0 7.84-.784 7.84-4.827 0-4.167-5.282-4.869-10.604-6.065-5.282-1.156-10.604-2.93-10.604-9.16 0-6.519 6.436-9.2 12.089-9.2 7.18 0 12.873 2.268 13.327 10.149h-5.364c-.33-4.126-4.002-5.446-7.51-5.446-3.217 0-6.89.866-6.89 4.126 0 3.837 5.653 4.456 10.604 5.652 5.323 1.197 10.604 2.971 10.604 9.242 0 7.716-7.22 10.233-13.822 10.233-7.262 0-13.41-2.97-13.74-10.975zm-36.723-22.237h5.034v5.158h.124c2.269-4.003 5.9-5.9 10.52-5.9 8.542 0 11.182 4.91 11.182 11.841v21.331h-5.322v-21.95c0-3.96-2.517-6.519-6.602-6.519-6.436 0-9.572 4.332-9.572 10.15v18.32h-5.364zm-20.547 28.51c5.612 0 10.109-4.414 10.109-12.254 0-7.921-4.497-12.295-10.109-12.295-5.57 0-10.108 4.374-10.108 12.295 0 7.84 4.538 12.255 10.108 12.255m0-29.253c10.315 0 15.761 7.468 15.761 16.998 0 9.49-5.446 16.958-15.76 16.958-10.274 0-15.72-7.468-15.72-16.958 0-9.53 5.446-16.998 15.72-16.998m-25.994.742h5.322v32.471h-5.322zm5.322-5.817h-5.322v-6.52h5.322zm-32.265 28.056c.206 4.745 4.333 6.271 8.706 6.271 3.342 0 7.84-.783 7.84-4.827 0-4.167-5.24-4.869-10.604-6.065-5.24-1.155-10.604-2.93-10.604-9.16 0-6.519 6.478-9.2 12.13-9.2 7.138 0 12.873 2.269 13.286 10.15h-5.323c-.371-4.127-4.002-5.447-7.55-5.447-3.177 0-6.89.866-6.89 4.126 0 3.837 5.652 4.456 10.603 5.653 5.364 1.196 10.604 2.97 10.604 9.242 0 7.715-7.18 10.232-13.78 10.232-7.304 0-13.451-2.97-13.74-10.975zm-36.72-22.239h4.992v5.158h.123c2.27-4.003 5.9-5.9 10.563-5.9 8.54 0 11.181 4.91 11.181 11.84v21.332h-5.364v-21.95c0-3.96-2.475-6.519-6.56-6.519-6.478 0-9.613 4.332-9.613 10.15v18.32h-5.323zm-10.027 13.12c-.247-5.074-4.084-9.159-9.365-9.159-5.57 0-8.912 4.209-9.284 9.16zm5.117 9.036c-1.445 7.138-6.56 11.058-13.864 11.058-10.356 0-15.224-7.18-15.554-17.081 0-9.738 6.395-16.875 15.266-16.875 11.47 0 14.977 10.727 14.688 18.566H72.49c-.206 5.653 3.012 10.645 10.109 10.645 4.373 0 7.468-2.104 8.417-6.313zm-58.713-13.038H49.18c6.725.043 9.82-2.888 9.82-8.21 0-5.364-3.095-8.252-9.82-8.252H37.544Zm-5.982-21.454h19.64c8.911 0 13.739 4.95 13.739 13.244 0 8.252-4.828 13.285-13.74 13.203H37.544v18.319h-5.982zm264.267-56.443c0-2.6-1.94-4.787-5.158-4.787-2.517 0-5.157 1.527-5.157 4.787 0 2.682 2.393 5.322 4.332 7.756 2.6-1.609 5.983-4.002 5.983-7.756m-7.716 13.657c-4.208 2.393-7.798 4.786-7.798 10.108 0 4.539 4.208 7.592 8.54 7.592 4.085 0 7.345-2.063 9.532-5.323zm13.244 16.09c-2.723 4.168-7.798 6.313-12.666 6.313-12.13 0-14.029-8.582-14.029-12.212 0-7.056 4.787-10.563 10.48-13.575-2.475-3.548-4.95-5.941-4.95-10.52 0-4.91 3.671-9.243 10.108-9.243 5.57 0 10.851 3.094 10.851 9.16 0 5.322-4.085 9.16-8.417 11.594l8.087 9.86a23.34 23.34 0 0 0 1.444-6.972h5.116c-.454 5.28-1.155 7.096-3.012 11.057l8.706 10.109h-6.973zm-73.153-39.237h5.323v26.571l14.812-14.193h7.138l-12.873 11.8 13.822 20.63h-6.767l-11.14-16.958-4.992 4.662v12.296h-5.323zm-20.176 12.378h5.034v6.849h.124c2.558-5.24 6.147-7.798 11.924-7.592v5.611c-8.624 0-11.76 4.91-11.76 13.12v14.442h-5.322zm-20.464 28.469c5.611 0 10.108-4.374 10.108-12.213 0-7.922-4.497-12.295-10.108-12.295-5.57 0-10.109 4.373-10.109 12.295 0 7.84 4.539 12.213 10.109 12.213m0-29.212c10.315 0 15.76 7.468 15.76 16.999 0 9.448-5.445 16.916-15.76 16.916-10.274 0-15.761-7.468-15.761-16.916 0-9.53 5.487-16.999 15.76-16.999m-27.313 33.173h-6.189l-10.232-37.629h-.124l-10.356 37.629h-6.23l-11.47-44.808h6.106l8.747 37.257h.124l10.067-37.257h6.478l9.902 37.257h.124l9.077-37.257h5.982zm-78.6-32.43h4.993v6.849h.165c2.558-5.24 6.148-7.798 11.924-7.592v5.611c-8.623 0-11.759 4.91-11.759 13.12v14.442h-5.322zM61.187 218.18c5.57 0 10.109-4.374 10.109-12.213 0-7.922-4.539-12.295-10.109-12.295s-10.108 4.373-10.108 12.295c0 7.84 4.538 12.213 10.108 12.213m0-29.212c10.274 0 15.761 7.468 15.761 16.999 0 9.448-5.487 16.916-15.76 16.916-10.275 0-15.762-7.468-15.762-16.916 0-9.53 5.487-16.999 15.761-16.999m-28.304 5.446h-5.446v-4.703h5.446v-4.828c0-5.28 3.136-8.045 8.953-8.045 1.031 0 2.476.206 3.466.495v4.663c-.948-.33-2.063-.455-3.012-.455-2.558 0-4.084.825-4.084 3.631v4.539h6.271v4.703h-6.271v27.727h-5.323zm306.64-70.636H346v4.704h-6.478v20.134c0 2.476.702 2.889 4.002 2.889H346v4.703h-4.085c-5.528 0-7.715-1.114-7.715-7.055v-20.671h-5.529v-4.704h5.529v-9.696h5.322zm-40.558 0h5.034v5.158h.123c2.27-4.003 5.9-5.9 10.522-5.9 8.54 0 11.181 4.91 11.181 11.841v21.331h-5.323v-21.95c0-3.92-2.516-6.519-6.601-6.519-6.478 0-9.614 4.332-9.614 10.15v18.32h-5.322zm-10.026 13.12c-.247-5.074-4.084-9.159-9.366-9.159-5.57 0-8.912 4.209-9.283 9.16zm5.158 9.037c-1.444 7.179-6.602 11.057-13.864 11.057-10.356 0-15.265-7.18-15.596-17.081 0-9.738 6.437-16.875 15.266-16.875 11.47 0 14.978 10.727 14.689 18.566h-24.302c-.165 5.653 3.012 10.686 10.109 10.686 4.414 0 7.468-2.145 8.416-6.353zm-79.672-22.157h4.992v4.786h.124c2.393-3.63 6.024-5.528 10.48-5.528 3.96 0 7.591 1.567 8.912 5.528 2.186-3.465 6.023-5.528 10.19-5.528 6.437 0 10.77 2.681 10.77 9.407v23.765h-5.323V134.96c0-4.002-1.073-7.22-6.272-7.22-5.157 0-8.458 3.26-8.458 8.293v20.176h-5.363V134.96c0-4.208-1.32-7.22-6.066-7.22-6.354 0-8.664 5.859-8.664 8.293v20.176h-5.323zm-10.439 0h6.478v4.704h-6.478v20.134c0 2.476.701 2.889 4.002 2.889h2.476v4.703h-4.085c-5.529 0-7.715-1.114-7.715-7.055v-20.671h-5.53v-4.704h5.53v-9.696h5.322zm-29.913 0h4.992v6.85h.124c2.6-5.2 6.148-7.758 11.924-7.592v5.652c-8.582 0-11.718 4.91-11.718 13.12v14.4h-5.322zm-12.295 15.679c-2.063 1.526-6.066 1.609-9.655 2.228-3.507.619-6.52 1.856-6.52 5.817 0 3.507 3.013 4.786 6.272 4.786 7.014 0 9.903-4.414 9.903-7.344zm8.664 16.627c-.948.578-2.145.908-3.837.908-2.764 0-4.497-1.527-4.497-5.034-2.971 3.466-6.932 5.034-11.43 5.034-5.9 0-10.727-2.641-10.727-9.119 0-7.344 5.447-8.912 10.975-9.984 5.9-1.114 10.934-.743 10.934-4.745 0-4.663-3.837-5.405-7.22-5.405-4.539 0-7.84 1.402-8.087 6.147h-5.364c.33-8.045 6.52-10.85 13.74-10.85 5.858 0 12.171 1.32 12.171 8.911v16.669c0 2.517 0 3.672 1.692 3.672.454 0 .948-.084 1.65-.33zm-49.099-28.345c-7.138 0-9.902 6.148-9.902 12.254 0 6.395 2.888 12.295 10.232 12.295 7.262 0 9.696-6.23 9.696-12.584 0-6.065-3.135-11.965-10.026-11.965m-15.06-3.96h5.323v4.414h.124c1.774-3.59 5.941-5.157 10.356-5.157 9.985 0 14.936 7.921 14.936 17.08 0 9.16-4.869 16.876-14.812 16.876-3.301 0-8.087-1.279-10.48-5.075h-.124v16.751h-5.322zM96.175 136.9c-.247-5.075-4.085-9.16-9.366-9.16-5.57 0-8.912 4.209-9.283 9.16zm5.158 9.036c-1.445 7.179-6.602 11.057-13.905 11.057-10.315 0-15.225-7.18-15.555-17.081 0-9.738 6.437-16.875 15.266-16.875 11.47 0 14.977 10.727 14.689 18.566H77.525c-.165 5.653 3.012 10.686 10.108 10.686 4.415 0 7.468-2.145 8.417-6.353zm-63.788 5.28h9.903c4.084 0 15.06-1.155 15.06-17.617 0-10.686-3.962-17.164-14.937-17.164H37.544Zm-5.982-39.773h15.39c13.78 0 21.496 6.89 21.496 21.33 0 14.978-6.56 23.436-21.496 23.436h-15.39Zm0 0"/>
  <path d="M0 288.077h5.281V.004H0Zm0 0" fill="#28b5b5"/>
</svg>
