<?xml version="1.0" encoding="UTF-8"?>
<svg width="602px" height="606px" viewBox="0 0 602 606" version="1.1" xmlns="http://www.w3.org/2000/svg" xmlns:xlink="http://www.w3.org/1999/xlink">
    <!-- Generator: Sketch 50.2 (55047) - http://www.bohemiancoding.com/sketch -->
    <title>Combined Shape</title>
    <desc>Created with Sketch.</desc>
    <defs></defs>
    <g id="Symbols" stroke="none" stroke-width="1" fill="none" fill-rule="evenodd">
        <g id="noun_Cross_1532267" transform="translate(1.000000, 1.000000)" fill="#B10D1D" stroke="#979797">
            <path d="M300,604 C134.314575,604 0,468.789994 0,302 C0,135.210006 134.314575,0 300,0 C465.685425,0 600,135.210006 600,302 C600,468.789994 465.685425,604 300,604 Z M363.107142,301.426786 L469.382601,195.87085 C478.338217,178.841464 474.266522,161.677854 457.167517,144.380021 C440.068511,127.082188 422.399657,124.375445 404.160952,136.259792 L300.46126,238.05454 L195.749219,136.259792 C177.166754,125.121198 159.733234,127.82794 143.448657,144.380021 C127.164081,160.932101 124.404038,178.095711 135.168527,195.87085 L237.695656,301.426786 C178.885548,358.951191 145.649415,391.246302 137.987258,398.312119 C126.494022,408.910844 121.02734,433.624035 143.448657,458.107807 C158.396202,474.430322 175.829723,476.838139 195.749219,465.331258 L300.46126,364.600335 C360.020213,426.938649 393.431233,460.515624 400.694319,465.331258 C411.588949,472.55471 431.165127,483.527041 457.167517,458.107807 C474.502443,441.161651 476.975508,423.325752 464.58671,404.600109 L363.107142,301.426786 Z" id="Combined-Shape"></path>
        </g>
    </g>
</svg>